<?xml version="1.0" encoding="UTF-8" standalone="no"?>
<!DOCTYPE svg PUBLIC "-//W3C//DTD SVG 1.1//EN"
 "http://www.w3.org/Graphics/SVG/1.1/DTD/svg11.dtd">
<!-- Generated by graphviz version 2.38.0 (20140413.2041)
 -->
<!-- Title: %3 Pages: 1 -->
<svg width="2140pt" height="899pt"
 viewBox="0.00 0.00 2140.00 899.30" xmlns="http://www.w3.org/2000/svg" xmlns:xlink="http://www.w3.org/1999/xlink">
<g id="graph0" class="graph" transform="scale(1 1) rotate(0) translate(4 895.296)">
<title>%3</title>
<polygon fill="white" stroke="none" points="-4,4 -4,-895.296 2136,-895.296 2136,4 -4,4"/>
<text text-anchor="middle" x="1066" y="-876.096" font-family="Times,serif" font-size="14.00">ELDA Crawled Data Management Toolkit</text>
<!-- human -->
<g id="node1" class="node"><title>human</title>
<ellipse fill="none" stroke="black" cx="357" cy="-848.148" rx="20.2975" ry="20.2975"/>
<text text-anchor="middle" x="357" y="-844.448" font-family="Times,serif" font-size="14.00">웃</text>
</g>
<!-- urls -->
<g id="node2" class="node"><title>urls</title>
<path fill="none" stroke="black" d="M635.5,-866.148C635.5,-866.148 564.5,-866.148 564.5,-866.148 558.5,-866.148 552.5,-860.148 552.5,-854.148 552.5,-854.148 552.5,-842.148 552.5,-842.148 552.5,-836.148 558.5,-830.148 564.5,-830.148 564.5,-830.148 635.5,-830.148 635.5,-830.148 641.5,-830.148 647.5,-836.148 647.5,-842.148 647.5,-842.148 647.5,-854.148 647.5,-854.148 647.5,-860.148 641.5,-866.148 635.5,-866.148"/>
<text text-anchor="middle" x="600" y="-844.448" font-family="Times,serif" font-size="14.00">{Input URLs}</text>
</g>
<!-- human&#45;&gt;urls -->
<g id="edge1" class="edge"><title>human&#45;&gt;urls</title>
<path fill="none" stroke="black" d="M377.3,-848.148C413.124,-848.148 488.793,-848.148 541.945,-848.148"/>
<polygon fill="black" stroke="black" points="542.257,-851.648 552.257,-848.148 542.257,-844.648 542.257,-851.648"/>
<text text-anchor="middle" x="464.824" y="-854.948" font-family="Times,serif" font-size="14.00">identification</text>
</g>
<!-- fulls_sampled_annotated -->
<g id="node29" class="node"><title>fulls_sampled_annotated</title>
<path fill="none" stroke="black" d="M291.5,-723C291.5,-723 146.5,-723 146.5,-723 140.5,-723 134.5,-717 134.5,-711 134.5,-711 134.5,-699 134.5,-699 134.5,-693 140.5,-687 146.5,-687 146.5,-687 291.5,-687 291.5,-687 297.5,-687 303.5,-693 303.5,-699 303.5,-699 303.5,-711 303.5,-711 303.5,-717 297.5,-723 291.5,-723"/>
<text text-anchor="middle" x="219" y="-701.3" font-family="Times,serif" font-size="14.00">{Manually&#45;annotated TUs}</text>
</g>
<!-- human&#45;&gt;fulls_sampled_annotated -->
<g id="edge33" class="edge"><title>human&#45;&gt;fulls_sampled_annotated</title>
<path fill="none" stroke="black" d="M336.489,-846.342C310.829,-844.189 267.317,-836.562 243,-810 223.989,-789.234 219.09,-756.483 218.249,-733.289"/>
<polygon fill="black" stroke="black" points="221.746,-733.027 218.115,-723.074 214.747,-733.119 221.746,-733.027"/>
<text text-anchor="middle" x="293" y="-798.8" font-family="Times,serif" font-size="14.00">manual validation</text>
</g>
<!-- psi_info -->
<g id="node31" class="node"><title>psi_info</title>
<path fill="none" stroke="black" d="M168.5,-615C168.5,-615 13.5,-615 13.5,-615 7.5,-615 1.5,-609 1.5,-603 1.5,-603 1.5,-591 1.5,-591 1.5,-585 7.5,-579 13.5,-579 13.5,-579 168.5,-579 168.5,-579 174.5,-579 180.5,-585 180.5,-591 180.5,-591 180.5,-603 180.5,-603 180.5,-609 174.5,-615 168.5,-615"/>
<text text-anchor="middle" x="91" y="-593.3" font-family="Times,serif" font-size="14.00">{PSI validation information}</text>
</g>
<!-- human&#45;&gt;psi_info -->
<g id="edge34" class="edge"><title>human&#45;&gt;psi_info</title>
<path fill="none" stroke="black" d="M336.967,-844.947C280.56,-838.299 122.518,-816.419 92,-777 58.0036,-733.088 70.9819,-663.26 81.9193,-625.095"/>
<polygon fill="black" stroke="black" points="85.3618,-625.802 84.9094,-615.217 78.6621,-623.774 85.3618,-625.802"/>
<text text-anchor="middle" x="153.5" y="-755.3" font-family="Times,serif" font-size="14.00">manual PSI validation</text>
</g>
<!-- launcher -->
<g id="node32" class="node"><title>launcher</title>
<polygon fill="none" stroke="black" points="959.5,-866.148 846.5,-866.148 846.5,-830.148 959.5,-830.148 959.5,-866.148"/>
<text text-anchor="middle" x="903" y="-844.448" font-family="Times,serif" font-size="14.00">crawler_launcher</text>
</g>
<!-- urls&#45;&gt;launcher -->
<g id="edge2" class="edge"><title>urls&#45;&gt;launcher</title>
<path fill="none" stroke="black" d="M647.64,-848.148C710.447,-848.148 773.255,-848.148 836.062,-848.148"/>
<polygon fill="black" stroke="black" points="836.142,-851.648 846.142,-848.148 836.142,-844.648 836.142,-851.648"/>
</g>
<!-- tmxs -->
<g id="node3" class="node"><title>tmxs</title>
<path fill="none" stroke="black" d="M1178,-866.148C1178,-866.148 1088,-866.148 1088,-866.148 1082,-866.148 1076,-860.148 1076,-854.148 1076,-854.148 1076,-842.148 1076,-842.148 1076,-836.148 1082,-830.148 1088,-830.148 1088,-830.148 1178,-830.148 1178,-830.148 1184,-830.148 1190,-836.148 1190,-842.148 1190,-842.148 1190,-854.148 1190,-854.148 1190,-860.148 1184,-866.148 1178,-866.148"/>
<text text-anchor="middle" x="1133" y="-844.448" font-family="Times,serif" font-size="14.00">{Crawled TMXs}</text>
</g>
<!-- backuper -->
<g id="node33" class="node"><title>backuper</title>
<polygon fill="none" stroke="black" points="1340.5,-866.148 1225.5,-866.148 1225.5,-830.148 1340.5,-830.148 1340.5,-866.148"/>
<text text-anchor="middle" x="1283" y="-844.448" font-family="Times,serif" font-size="14.00">crawler_backuper</text>
</g>
<!-- tmxs&#45;&gt;backuper -->
<g id="edge4" class="edge"><title>tmxs&#45;&gt;backuper</title>
<path fill="none" stroke="black" d="M1190.13,-848.148C1198.47,-848.148 1206.81,-848.148 1215.15,-848.148"/>
<polygon fill="black" stroke="black" points="1215.32,-851.648 1225.32,-848.148 1215.32,-844.648 1215.32,-851.648"/>
</g>
<!-- metacleaner -->
<g id="node34" class="node"><title>metacleaner</title>
<polygon fill="none" stroke="black" points="1214.5,-777 1081.5,-777 1081.5,-741 1214.5,-741 1214.5,-777"/>
<text text-anchor="middle" x="1148" y="-755.3" font-family="Times,serif" font-size="14.00">crawler_metacleaner</text>
</g>
<!-- tmxs&#45;&gt;metacleaner -->
<g id="edge7" class="edge"><title>tmxs&#45;&gt;metacleaner</title>
<path fill="none" stroke="black" d="M1135.96,-829.931C1138.06,-817.756 1140.91,-801.184 1143.31,-787.228"/>
<polygon fill="black" stroke="black" points="1146.8,-787.631 1145.04,-777.182 1139.9,-786.443 1146.8,-787.631"/>
</g>
<!-- reporter -->
<g id="node35" class="node"><title>reporter</title>
<polygon fill="none" stroke="black" points="1468,-669 1358,-669 1358,-633 1468,-633 1468,-669"/>
<text text-anchor="middle" x="1413" y="-647.3" font-family="Times,serif" font-size="14.00">crawler_reporter</text>
</g>
<!-- tmxs&#45;&gt;reporter -->
<g id="edge6" class="edge"><title>tmxs&#45;&gt;reporter</title>
<path fill="none" stroke="black" d="M1157.85,-829.83C1208.52,-794.517 1323.75,-714.205 1380.37,-674.743"/>
<polygon fill="black" stroke="black" points="1382.4,-677.59 1388.61,-669.001 1378.4,-671.847 1382.4,-677.59"/>
</g>
<!-- tmxs_dedup -->
<g id="node4" class="node"><title>tmxs_dedup</title>
<path fill="none" stroke="black" d="M1591.5,-777C1591.5,-777 1474.5,-777 1474.5,-777 1468.5,-777 1462.5,-771 1462.5,-765 1462.5,-765 1462.5,-753 1462.5,-753 1462.5,-747 1468.5,-741 1474.5,-741 1474.5,-741 1591.5,-741 1591.5,-741 1597.5,-741 1603.5,-747 1603.5,-753 1603.5,-753 1603.5,-765 1603.5,-765 1603.5,-771 1597.5,-777 1591.5,-777"/>
<text text-anchor="middle" x="1533" y="-755.3" font-family="Times,serif" font-size="14.00">{Deduplicated TMXs}</text>
</g>
<!-- tmxs_dedup&#45;&gt;reporter -->
<g id="edge9" class="edge"><title>tmxs_dedup&#45;&gt;reporter</title>
<path fill="none" stroke="black" d="M1513.72,-740.969C1493.81,-723.379 1462.56,-695.782 1440.16,-675.987"/>
<polygon fill="black" stroke="black" points="1442.44,-673.338 1432.63,-669.341 1437.81,-678.584 1442.44,-673.338"/>
</g>
<!-- tmxs_deback -->
<g id="node5" class="node"><title>tmxs_deback</title>
<path fill="none" stroke="black" d="M1432.5,-777C1432.5,-777 1311.5,-777 1311.5,-777 1305.5,-777 1299.5,-771 1299.5,-765 1299.5,-765 1299.5,-753 1299.5,-753 1299.5,-747 1305.5,-741 1311.5,-741 1311.5,-741 1432.5,-741 1432.5,-741 1438.5,-741 1444.5,-747 1444.5,-753 1444.5,-753 1444.5,-765 1444.5,-765 1444.5,-771 1438.5,-777 1432.5,-777"/>
<text text-anchor="middle" x="1372" y="-755.3" font-family="Times,serif" font-size="14.00">{De&#45;backed&#45;up TMXs}</text>
</g>
<!-- tmxs_deback&#45;&gt;reporter -->
<g id="edge11" class="edge"><title>tmxs_deback&#45;&gt;reporter</title>
<path fill="none" stroke="black" d="M1378.59,-740.969C1385.06,-724.224 1395.05,-698.41 1402.6,-678.892"/>
<polygon fill="black" stroke="black" points="1405.95,-679.93 1406.29,-669.341 1399.42,-677.405 1405.95,-679.93"/>
</g>
<!-- zips -->
<g id="node6" class="node"><title>zips</title>
<path fill="none" stroke="black" d="M1465.5,-866.148C1465.5,-866.148 1388.5,-866.148 1388.5,-866.148 1382.5,-866.148 1376.5,-860.148 1376.5,-854.148 1376.5,-854.148 1376.5,-842.148 1376.5,-842.148 1376.5,-836.148 1382.5,-830.148 1388.5,-830.148 1388.5,-830.148 1465.5,-830.148 1465.5,-830.148 1471.5,-830.148 1477.5,-836.148 1477.5,-842.148 1477.5,-842.148 1477.5,-854.148 1477.5,-854.148 1477.5,-860.148 1471.5,-866.148 1465.5,-866.148"/>
<text text-anchor="middle" x="1427" y="-844.448" font-family="Times,serif" font-size="14.00">{ZIP archives}</text>
</g>
<!-- zips&#45;&gt;tmxs_deback -->
<g id="edge10" class="edge"><title>zips&#45;&gt;tmxs_deback</title>
<path fill="none" stroke="black" d="M1416.13,-829.931C1408.22,-817.398 1397.37,-800.205 1388.41,-786.003"/>
<polygon fill="black" stroke="black" points="1391.14,-783.771 1382.84,-777.182 1385.22,-787.507 1391.14,-783.771"/>
<text text-anchor="middle" x="1431.5" y="-798.8" font-family="Times,serif" font-size="14.00">웃 (unzip)</text>
</g>
<!-- syntheses -->
<g id="node7" class="node"><title>syntheses</title>
<path fill="none" stroke="black" d="M1684,-561C1684,-561 1582,-561 1582,-561 1576,-561 1570,-555 1570,-549 1570,-549 1570,-537 1570,-537 1570,-531 1576,-525 1582,-525 1582,-525 1684,-525 1684,-525 1690,-525 1696,-531 1696,-537 1696,-537 1696,-549 1696,-549 1696,-555 1690,-561 1684,-561"/>
<text text-anchor="middle" x="1633" y="-539.3" font-family="Times,serif" font-size="14.00">{Synthesis reports}</text>
</g>
<!-- aggregator -->
<g id="node36" class="node"><title>aggregator</title>
<polygon fill="none" stroke="black" points="1365,-488 1243,-488 1243,-452 1365,-452 1365,-488"/>
<text text-anchor="middle" x="1304" y="-466.3" font-family="Times,serif" font-size="14.00">crawler_aggregator</text>
</g>
<!-- syntheses&#45;&gt;aggregator -->
<g id="edge15" class="edge"><title>syntheses&#45;&gt;aggregator</title>
<path fill="none" stroke="black" d="M1569.8,-526.985C1566.83,-526.308 1563.88,-525.643 1561,-525 1498.32,-511.017 1426.81,-496.073 1375.16,-485.459"/>
<polygon fill="black" stroke="black" points="1375.61,-481.977 1365.11,-483.396 1374.2,-488.834 1375.61,-481.977"/>
</g>
<!-- filter -->
<g id="node37" class="node"><title>filter</title>
<polygon fill="none" stroke="black" points="1773,-488 1681,-488 1681,-452 1773,-452 1773,-488"/>
<text text-anchor="middle" x="1727" y="-466.3" font-family="Times,serif" font-size="14.00">crawler_filter</text>
</g>
<!-- syntheses&#45;&gt;filter -->
<g id="edge38" class="edge"><title>syntheses&#45;&gt;filter</title>
<path fill="none" stroke="black" d="M1655.75,-524.813C1667.88,-515.656 1682.97,-504.26 1696.13,-494.316"/>
<polygon fill="black" stroke="black" points="1698.58,-496.849 1704.45,-488.029 1694.37,-491.263 1698.58,-496.849"/>
</g>
<!-- dbdumper -->
<g id="node39" class="node"><title>dbdumper</title>
<polygon fill="none" stroke="black" points="1655.5,-342 1534.5,-342 1534.5,-306 1655.5,-306 1655.5,-342"/>
<text text-anchor="middle" x="1595" y="-320.3" font-family="Times,serif" font-size="14.00">crawler_dbdumper</text>
</g>
<!-- syntheses&#45;&gt;dbdumper -->
<g id="edge20" class="edge"><title>syntheses&#45;&gt;dbdumper</title>
<path fill="none" stroke="black" d="M1632.17,-524.917C1630.27,-492.354 1624.52,-419.355 1609,-360 1608.27,-357.21 1607.38,-354.344 1606.4,-351.51"/>
<polygon fill="black" stroke="black" points="1609.67,-350.269 1602.85,-342.159 1603.13,-352.75 1609.67,-350.269"/>
</g>
<!-- syntheses_db -->
<g id="node8" class="node"><title>syntheses_db</title>
<path fill="none" stroke="black" d="M1650,-269C1650,-269 1540,-269 1540,-269 1534,-269 1528,-263 1528,-257 1528,-257 1528,-245 1528,-245 1528,-239 1534,-233 1540,-233 1540,-233 1650,-233 1650,-233 1656,-233 1662,-239 1662,-245 1662,-245 1662,-257 1662,-257 1662,-263 1656,-269 1650,-269"/>
<text text-anchor="middle" x="1595" y="-247.3" font-family="Times,serif" font-size="14.00">{Synthesis database}</text>
</g>
<!-- dbretriever -->
<g id="node40" class="node"><title>dbretriever</title>
<polygon fill="none" stroke="black" points="1658.5,-123 1531.5,-123 1531.5,-87 1658.5,-87 1658.5,-123"/>
<text text-anchor="middle" x="1595" y="-101.3" font-family="Times,serif" font-size="14.00">crawler_dbretriever</text>
</g>
<!-- syntheses_db&#45;&gt;dbretriever -->
<g id="edge48" class="edge"><title>syntheses_db&#45;&gt;dbretriever</title>
<path fill="none" stroke="black" d="M1595,-232.916C1595,-208.341 1595,-162.753 1595,-133.427"/>
<polygon fill="black" stroke="black" points="1598.5,-133.062 1595,-123.062 1591.5,-133.062 1598.5,-133.062"/>
</g>
<!-- syntheses_q -->
<g id="node9" class="node"><title>syntheses_q</title>
<path fill="none" stroke="black" d="M2013,-36C2013,-36 1865,-36 1865,-36 1859,-36 1853,-30 1853,-24 1853,-24 1853,-12 1853,-12 1853,-6 1859,-0 1865,-0 1865,-0 2013,-0 2013,-0 2019,-0 2025,-6 2025,-12 2025,-12 2025,-24 2025,-24 2025,-30 2019,-36 2013,-36"/>
<text text-anchor="middle" x="1939" y="-14.3" font-family="Times,serif" font-size="14.00">{Queried synthesis reports}</text>
</g>
<!-- syntheses_m -->
<g id="node10" class="node"><title>syntheses_m</title>
<path fill="none" stroke="black" d="M1652.5,-866.148C1652.5,-866.148 1507.5,-866.148 1507.5,-866.148 1501.5,-866.148 1495.5,-860.148 1495.5,-854.148 1495.5,-854.148 1495.5,-842.148 1495.5,-842.148 1495.5,-836.148 1501.5,-830.148 1507.5,-830.148 1507.5,-830.148 1652.5,-830.148 1652.5,-830.148 1658.5,-830.148 1664.5,-836.148 1664.5,-842.148 1664.5,-842.148 1664.5,-854.148 1664.5,-854.148 1664.5,-860.148 1658.5,-866.148 1652.5,-866.148"/>
<text text-anchor="middle" x="1580" y="-844.448" font-family="Times,serif" font-size="14.00">{Merged synthesis reports}</text>
</g>
<!-- syntheses_filtered -->
<g id="node11" class="node"><title>syntheses_filtered</title>
<path fill="none" stroke="black" d="M1820.5,-415C1820.5,-415 1673.5,-415 1673.5,-415 1667.5,-415 1661.5,-409 1661.5,-403 1661.5,-403 1661.5,-391 1661.5,-391 1661.5,-385 1667.5,-379 1673.5,-379 1673.5,-379 1820.5,-379 1820.5,-379 1826.5,-379 1832.5,-385 1832.5,-391 1832.5,-391 1832.5,-403 1832.5,-403 1832.5,-409 1826.5,-415 1820.5,-415"/>
<text text-anchor="middle" x="1747" y="-393.3" font-family="Times,serif" font-size="14.00">{Filtered synthesis reports}</text>
</g>
<!-- fulls -->
<g id="node12" class="node"><title>fulls</title>
<path fill="none" stroke="black" d="M1336.5,-561C1336.5,-561 1265.5,-561 1265.5,-561 1259.5,-561 1253.5,-555 1253.5,-549 1253.5,-549 1253.5,-537 1253.5,-537 1253.5,-531 1259.5,-525 1265.5,-525 1265.5,-525 1336.5,-525 1336.5,-525 1342.5,-525 1348.5,-531 1348.5,-537 1348.5,-537 1348.5,-549 1348.5,-549 1348.5,-555 1342.5,-561 1336.5,-561"/>
<text text-anchor="middle" x="1301" y="-539.3" font-family="Times,serif" font-size="14.00">{Full reports}</text>
</g>
<!-- fulls&#45;&gt;aggregator -->
<g id="edge16" class="edge"><title>fulls&#45;&gt;aggregator</title>
<path fill="none" stroke="black" d="M1301.73,-524.813C1302.07,-516.789 1302.48,-507.047 1302.86,-498.069"/>
<polygon fill="black" stroke="black" points="1306.36,-498.168 1303.28,-488.029 1299.36,-497.872 1306.36,-498.168"/>
</g>
<!-- fulls&#45;&gt;filter -->
<g id="edge39" class="edge"><title>fulls&#45;&gt;filter</title>
<path fill="none" stroke="black" d="M1348.72,-526.991C1351.84,-526.25 1354.96,-525.576 1358,-525 1451.79,-507.266 1477.71,-521.835 1572,-507 1605.08,-501.795 1641.58,-493.449 1670.85,-486.102"/>
<polygon fill="black" stroke="black" points="1672.05,-489.408 1680.88,-483.552 1670.33,-482.624 1672.05,-489.408"/>
</g>
<!-- pprinter -->
<g id="node38" class="node"><title>pprinter</title>
<polygon fill="none" stroke="black" points="816,-488 706,-488 706,-452 816,-452 816,-488"/>
<text text-anchor="middle" x="761" y="-466.3" font-family="Times,serif" font-size="14.00">crawler_pprinter</text>
</g>
<!-- fulls&#45;&gt;pprinter -->
<g id="edge42" class="edge"><title>fulls&#45;&gt;pprinter</title>
<path fill="none" stroke="black" d="M1253.08,-535.699C1156.08,-522.946 936.408,-494.063 826.373,-479.595"/>
<polygon fill="black" stroke="black" points="826.766,-476.117 816.395,-478.283 825.854,-483.057 826.766,-476.117"/>
</g>
<!-- fulls&#45;&gt;dbdumper -->
<g id="edge21" class="edge"><title>fulls&#45;&gt;dbdumper</title>
<path fill="none" stroke="black" d="M1348.59,-525.884C1419.06,-501.088 1546.08,-452.52 1576,-415 1590.11,-397.301 1594.42,-371.608 1595.46,-352.201"/>
<polygon fill="black" stroke="black" points="1598.96,-352.25 1595.74,-342.157 1591.96,-352.055 1598.96,-352.25"/>
</g>
<!-- sampler -->
<g id="node41" class="node"><title>sampler</title>
<polygon fill="none" stroke="black" points="641.5,-488 532.5,-488 532.5,-452 641.5,-452 641.5,-488"/>
<text text-anchor="middle" x="587" y="-466.3" font-family="Times,serif" font-size="14.00">crawler_sampler</text>
</g>
<!-- fulls&#45;&gt;sampler -->
<g id="edge30" class="edge"><title>fulls&#45;&gt;sampler</title>
<path fill="none" stroke="black" d="M1253.13,-538.769C1150.82,-531.634 903.4,-513.149 697,-488 682.35,-486.215 666.65,-483.982 651.832,-481.727"/>
<polygon fill="black" stroke="black" points="652.154,-478.235 641.737,-480.168 651.085,-485.153 652.154,-478.235"/>
</g>
<!-- fulls_db -->
<g id="node13" class="node"><title>fulls_db</title>
<path fill="none" stroke="black" d="M1497.5,-269C1497.5,-269 1418.5,-269 1418.5,-269 1412.5,-269 1406.5,-263 1406.5,-257 1406.5,-257 1406.5,-245 1406.5,-245 1406.5,-239 1412.5,-233 1418.5,-233 1418.5,-233 1497.5,-233 1497.5,-233 1503.5,-233 1509.5,-239 1509.5,-245 1509.5,-245 1509.5,-257 1509.5,-257 1509.5,-263 1503.5,-269 1497.5,-269"/>
<text text-anchor="middle" x="1458" y="-247.3" font-family="Times,serif" font-size="14.00">{Full database}</text>
</g>
<!-- fulls_db&#45;&gt;dbretriever -->
<g id="edge49" class="edge"><title>fulls_db&#45;&gt;dbretriever</title>
<path fill="none" stroke="black" d="M1474.25,-232.916C1498.46,-207.475 1544.09,-159.513 1571.8,-130.389"/>
<polygon fill="black" stroke="black" points="1574.41,-132.719 1578.77,-123.062 1569.34,-127.894 1574.41,-132.719"/>
</g>
<!-- fulls_filtered -->
<g id="node14" class="node"><title>fulls_filtered</title>
<path fill="none" stroke="black" d="M1977.5,-415C1977.5,-415 1862.5,-415 1862.5,-415 1856.5,-415 1850.5,-409 1850.5,-403 1850.5,-403 1850.5,-391 1850.5,-391 1850.5,-385 1856.5,-379 1862.5,-379 1862.5,-379 1977.5,-379 1977.5,-379 1983.5,-379 1989.5,-385 1989.5,-391 1989.5,-391 1989.5,-403 1989.5,-403 1989.5,-409 1983.5,-415 1977.5,-415"/>
<text text-anchor="middle" x="1920" y="-393.3" font-family="Times,serif" font-size="14.00">{Filtered full reports}</text>
</g>
<!-- fulls_sampled -->
<g id="node15" class="node"><title>fulls_sampled</title>
<path fill="none" stroke="black" d="M546.5,-415C546.5,-415 427.5,-415 427.5,-415 421.5,-415 415.5,-409 415.5,-403 415.5,-403 415.5,-391 415.5,-391 415.5,-385 421.5,-379 427.5,-379 427.5,-379 546.5,-379 546.5,-379 552.5,-379 558.5,-385 558.5,-391 558.5,-391 558.5,-403 558.5,-403 558.5,-409 552.5,-415 546.5,-415"/>
<text text-anchor="middle" x="487" y="-393.3" font-family="Times,serif" font-size="14.00">{Sampled full reports}</text>
</g>
<!-- fulls_sampled&#45;&gt;human -->
<g id="edge32" class="edge"><title>fulls_sampled&#45;&gt;human</title>
<path fill="none" stroke="black" d="M481.329,-415.004C477.081,-429.256 472,-450.228 472,-469 472,-760 472,-760 472,-760 472,-803.02 420.247,-827.54 386.177,-839.021"/>
<polygon fill="black" stroke="black" points="384.722,-835.811 376.248,-842.171 386.839,-842.483 384.722,-835.811"/>
</g>
<!-- fulls_sampled&#45;&gt;pprinter -->
<g id="edge43" class="edge"><title>fulls_sampled&#45;&gt;pprinter</title>
<path fill="none" stroke="black" d="M558.744,-413.581C584.174,-419.351 612.938,-426.161 639,-433 657.649,-437.894 677.768,-443.637 696.185,-449.081"/>
<polygon fill="black" stroke="black" points="695.349,-452.484 705.932,-451.98 697.345,-445.774 695.349,-452.484"/>
</g>
<!-- fulls_q -->
<g id="node16" class="node"><title>fulls_q</title>
<path fill="none" stroke="black" d="M1354,-36C1354,-36 1238,-36 1238,-36 1232,-36 1226,-30 1226,-24 1226,-24 1226,-12 1226,-12 1226,-6 1232,-0 1238,-0 1238,-0 1354,-0 1354,-0 1360,-0 1366,-6 1366,-12 1366,-12 1366,-24 1366,-24 1366,-30 1360,-36 1354,-36"/>
<text text-anchor="middle" x="1296" y="-14.3" font-family="Times,serif" font-size="14.00">{Queried full reports}</text>
</g>
<!-- fulls_m -->
<g id="node17" class="node"><title>fulls_m</title>
<path fill="none" stroke="black" d="M1807.5,-866.148C1807.5,-866.148 1694.5,-866.148 1694.5,-866.148 1688.5,-866.148 1682.5,-860.148 1682.5,-854.148 1682.5,-854.148 1682.5,-842.148 1682.5,-842.148 1682.5,-836.148 1688.5,-830.148 1694.5,-830.148 1694.5,-830.148 1807.5,-830.148 1807.5,-830.148 1813.5,-830.148 1819.5,-836.148 1819.5,-842.148 1819.5,-842.148 1819.5,-854.148 1819.5,-854.148 1819.5,-860.148 1813.5,-866.148 1807.5,-866.148"/>
<text text-anchor="middle" x="1751" y="-844.448" font-family="Times,serif" font-size="14.00">{Merged full reports}</text>
</g>
<!-- fulls_pp -->
<g id="node18" class="node"><title>fulls_pp</title>
<path fill="none" stroke="black" d="M385.5,-415C385.5,-415 236.5,-415 236.5,-415 230.5,-415 224.5,-409 224.5,-403 224.5,-403 224.5,-391 224.5,-391 224.5,-385 230.5,-379 236.5,-379 236.5,-379 385.5,-379 385.5,-379 391.5,-379 397.5,-385 397.5,-391 397.5,-391 397.5,-403 397.5,-403 397.5,-409 391.5,-415 385.5,-415"/>
<text text-anchor="middle" x="311" y="-393.3" font-family="Times,serif" font-size="14.00">{Pretty&#45;printed full reports}</text>
</g>
<!-- fulls_pp&#45;&gt;human -->
<g id="edge47" class="edge"><title>fulls_pp&#45;&gt;human</title>
<path fill="none" stroke="black" d="M329.976,-415.012C342.647,-428.304 357,-447.997 357,-469 357,-760 357,-760 357,-760 357,-779.113 357,-800.585 357,-817.432"/>
<polygon fill="black" stroke="black" points="353.5,-817.765 357,-827.765 360.5,-817.765 353.5,-817.765"/>
<text text-anchor="middle" x="398" y="-593.3" font-family="Times,serif" font-size="14.00">quality control</text>
</g>
<!-- uniqurls -->
<g id="node19" class="node"><title>uniqurls</title>
<path fill="none" stroke="black" d="M1539.5,-561C1539.5,-561 1378.5,-561 1378.5,-561 1372.5,-561 1366.5,-555 1366.5,-549 1366.5,-549 1366.5,-537 1366.5,-537 1366.5,-531 1372.5,-525 1378.5,-525 1378.5,-525 1539.5,-525 1539.5,-525 1545.5,-525 1551.5,-531 1551.5,-537 1551.5,-537 1551.5,-549 1551.5,-549 1551.5,-555 1545.5,-561 1539.5,-561"/>
<text text-anchor="middle" x="1459" y="-539.3" font-family="Times,serif" font-size="14.00">{Unique TU&#45;providing URLs}</text>
</g>
<!-- site_aggregs -->
<g id="node20" class="node"><title>site_aggregs</title>
<path fill="none" stroke="black" d="M1554.5,-415C1554.5,-415 1433.5,-415 1433.5,-415 1427.5,-415 1421.5,-409 1421.5,-403 1421.5,-403 1421.5,-391 1421.5,-391 1421.5,-385 1427.5,-379 1433.5,-379 1433.5,-379 1554.5,-379 1554.5,-379 1560.5,-379 1566.5,-385 1566.5,-391 1566.5,-391 1566.5,-403 1566.5,-403 1566.5,-409 1560.5,-415 1554.5,-415"/>
<text text-anchor="middle" x="1494" y="-393.3" font-family="Times,serif" font-size="14.00">{Per&#45;site aggregations}</text>
</g>
<!-- site_aggregs&#45;&gt;dbdumper -->
<g id="edge22" class="edge"><title>site_aggregs&#45;&gt;dbdumper</title>
<path fill="none" stroke="black" d="M1518.19,-378.994C1531.34,-369.753 1547.78,-358.192 1562.08,-348.142"/>
<polygon fill="black" stroke="black" points="1564.49,-350.728 1570.66,-342.114 1560.46,-345.001 1564.49,-350.728"/>
</g>
<!-- site_db -->
<g id="node21" class="node"><title>site_db</title>
<path fill="none" stroke="black" d="M2120,-269C2120,-269 1954,-269 1954,-269 1948,-269 1942,-263 1942,-257 1942,-257 1942,-245 1942,-245 1942,-239 1948,-233 1954,-233 1954,-233 2120,-233 2120,-233 2126,-233 2132,-239 2132,-245 2132,-245 2132,-257 2132,-257 2132,-263 2126,-269 2120,-269"/>
<text text-anchor="middle" x="2037" y="-247.3" font-family="Times,serif" font-size="14.00">{Per&#45;site aggregation database}</text>
</g>
<!-- pgloader -->
<g id="node43" class="node"><title>pgloader</title>
<ellipse fill="grey" stroke="black" cx="1802" cy="-178" rx="41.6928" ry="18"/>
<text text-anchor="middle" x="1802" y="-174.3" font-family="Times,serif" font-size="14.00">pgloader</text>
</g>
<!-- site_db&#45;&gt;pgloader -->
<g id="edge52" class="edge"><title>site_db&#45;&gt;pgloader</title>
<path fill="none" stroke="black" d="M1980.71,-232.994C1938.95,-220.378 1882.89,-203.439 1844.77,-191.921"/>
<polygon fill="black" stroke="black" points="1845.58,-188.511 1835,-188.97 1843.56,-195.212 1845.58,-188.511"/>
</g>
<!-- site_q -->
<g id="node22" class="node"><title>site_q</title>
<path fill="none" stroke="black" d="M1559.5,-36C1559.5,-36 1396.5,-36 1396.5,-36 1390.5,-36 1384.5,-30 1384.5,-24 1384.5,-24 1384.5,-12 1384.5,-12 1384.5,-6 1390.5,-0 1396.5,-0 1396.5,-0 1559.5,-0 1559.5,-0 1565.5,-0 1571.5,-6 1571.5,-12 1571.5,-12 1571.5,-24 1571.5,-24 1571.5,-30 1565.5,-36 1559.5,-36"/>
<text text-anchor="middle" x="1478" y="-14.3" font-family="Times,serif" font-size="14.00">{Queried per&#45;site aggregation}</text>
</g>
<!-- lpair_aggregs -->
<g id="node23" class="node"><title>lpair_aggregs</title>
<path fill="none" stroke="black" d="M1391,-415C1391,-415 1217,-415 1217,-415 1211,-415 1205,-409 1205,-403 1205,-403 1205,-391 1205,-391 1205,-385 1211,-379 1217,-379 1217,-379 1391,-379 1391,-379 1397,-379 1403,-385 1403,-391 1403,-391 1403,-403 1403,-403 1403,-409 1397,-415 1391,-415"/>
<text text-anchor="middle" x="1304" y="-393.3" font-family="Times,serif" font-size="14.00">{Per&#45;language pair aggregations}</text>
</g>
<!-- lpair_aggregs&#45;&gt;dbdumper -->
<g id="edge23" class="edge"><title>lpair_aggregs&#45;&gt;dbdumper</title>
<path fill="none" stroke="black" d="M1373.7,-378.994C1419.29,-367.872 1478.64,-353.389 1524.41,-342.224"/>
<polygon fill="black" stroke="black" points="1525.36,-345.593 1534.25,-339.822 1523.71,-338.792 1525.36,-345.593"/>
</g>
<!-- plotter -->
<g id="node42" class="node"><title>plotter</title>
<polygon fill="none" stroke="black" points="1343,-342 1241,-342 1241,-306 1343,-306 1343,-342"/>
<text text-anchor="middle" x="1292" y="-320.3" font-family="Times,serif" font-size="14.00">crawler_plotter</text>
</g>
<!-- lpair_aggregs&#45;&gt;plotter -->
<g id="edge28" class="edge"><title>lpair_aggregs&#45;&gt;plotter</title>
<path fill="none" stroke="black" d="M1301.1,-378.813C1299.74,-370.789 1298.09,-361.047 1296.58,-352.069"/>
<polygon fill="black" stroke="black" points="1300,-351.306 1294.88,-342.029 1293.09,-352.472 1300,-351.306"/>
</g>
<!-- lpair_q -->
<g id="node24" class="node"><title>lpair_q</title>
<path fill="none" stroke="black" d="M1822.5,-36C1822.5,-36 1601.5,-36 1601.5,-36 1595.5,-36 1589.5,-30 1589.5,-24 1589.5,-24 1589.5,-12 1589.5,-12 1589.5,-6 1595.5,-0 1601.5,-0 1601.5,-0 1822.5,-0 1822.5,-0 1828.5,-0 1834.5,-6 1834.5,-12 1834.5,-12 1834.5,-24 1834.5,-24 1834.5,-30 1828.5,-36 1822.5,-36"/>
<text text-anchor="middle" x="1712" y="-14.3" font-family="Times,serif" font-size="14.00">{Queried per&#45;language pair aggregations}</text>
</g>
<!-- lpair_confmat -->
<g id="node25" class="node"><title>lpair_confmat</title>
<path fill="none" stroke="black" d="M1175,-415C1175,-415 975,-415 975,-415 969,-415 963,-409 963,-403 963,-403 963,-391 963,-391 963,-385 969,-379 975,-379 975,-379 1175,-379 1175,-379 1181,-379 1187,-385 1187,-391 1187,-391 1187,-403 1187,-403 1187,-409 1181,-415 1175,-415"/>
<text text-anchor="middle" x="1075" y="-393.3" font-family="Times,serif" font-size="14.00">{Per&#45;language pair frequency matrix}</text>
</g>
<!-- lpair_confmat&#45;&gt;pprinter -->
<g id="edge44" class="edge"><title>lpair_confmat&#45;&gt;pprinter</title>
<path fill="none" stroke="black" d="M999.644,-415.039C946.632,-427.026 876.412,-442.904 825.886,-454.328"/>
<polygon fill="black" stroke="black" points="825.036,-450.932 816.054,-456.551 826.58,-457.76 825.036,-450.932"/>
</g>
<!-- lpair_confmat_pp -->
<g id="node26" class="node"><title>lpair_confmat_pp</title>
<path fill="none" stroke="black" d="M933,-415C933,-415 589,-415 589,-415 583,-415 577,-409 577,-403 577,-403 577,-391 577,-391 577,-385 583,-379 589,-379 589,-379 933,-379 933,-379 939,-379 945,-385 945,-391 945,-391 945,-403 945,-403 945,-409 939,-415 933,-415"/>
<text text-anchor="middle" x="761" y="-393.3" font-family="Times,serif" font-size="14.00">{Pretty&#45;printed (pruned) per&#45;language pair frequency matrices}</text>
</g>
<!-- lpair_db -->
<g id="node27" class="node"><title>lpair_db</title>
<path fill="none" stroke="black" d="M1911.5,-269C1911.5,-269 1692.5,-269 1692.5,-269 1686.5,-269 1680.5,-263 1680.5,-257 1680.5,-257 1680.5,-245 1680.5,-245 1680.5,-239 1686.5,-233 1692.5,-233 1692.5,-233 1911.5,-233 1911.5,-233 1917.5,-233 1923.5,-239 1923.5,-245 1923.5,-245 1923.5,-257 1923.5,-257 1923.5,-263 1917.5,-269 1911.5,-269"/>
<text text-anchor="middle" x="1802" y="-247.3" font-family="Times,serif" font-size="14.00">{Per&#45;language pair aggregation database}</text>
</g>
<!-- lpair_db&#45;&gt;pgloader -->
<g id="edge53" class="edge"><title>lpair_db&#45;&gt;pgloader</title>
<path fill="none" stroke="black" d="M1802,-232.813C1802,-224.789 1802,-215.047 1802,-206.069"/>
<polygon fill="black" stroke="black" points="1805.5,-206.029 1802,-196.029 1798.5,-206.029 1805.5,-206.029"/>
</g>
<!-- lpair_histo -->
<g id="node28" class="node"><title>lpair_histo</title>
<path fill="none" stroke="black" d="M1376.5,-269C1376.5,-269 1199.5,-269 1199.5,-269 1193.5,-269 1187.5,-263 1187.5,-257 1187.5,-257 1187.5,-245 1187.5,-245 1187.5,-239 1193.5,-233 1199.5,-233 1199.5,-233 1376.5,-233 1376.5,-233 1382.5,-233 1388.5,-239 1388.5,-245 1388.5,-245 1388.5,-257 1388.5,-257 1388.5,-263 1382.5,-269 1376.5,-269"/>
<text text-anchor="middle" x="1288" y="-247.3" font-family="Times,serif" font-size="14.00">{Per&#45;language pair histogram(s)}</text>
</g>
<!-- qcintegrator -->
<g id="node44" class="node"><title>qcintegrator</title>
<polygon fill="none" stroke="black" points="210.5,-123 77.5,-123 77.5,-87 210.5,-87 210.5,-123"/>
<text text-anchor="middle" x="144" y="-101.3" font-family="Times,serif" font-size="14.00">crawler_qcintegrator</text>
</g>
<!-- fulls_sampled_annotated&#45;&gt;qcintegrator -->
<g id="edge35" class="edge"><title>fulls_sampled_annotated&#45;&gt;qcintegrator</title>
<path fill="none" stroke="black" d="M212.957,-686.988C206.143,-666.252 196,-630.013 196,-598 196,-598 196,-598 196,-177 196,-159.16 185.182,-142.823 173.414,-130.33"/>
<polygon fill="black" stroke="black" points="175.63,-127.599 166.053,-123.068 170.714,-132.583 175.63,-127.599"/>
</g>
<!-- fulls_enriched -->
<g id="node30" class="node"><title>fulls_enriched</title>
<path fill="none" stroke="black" d="M276,-36C276,-36 12,-36 12,-36 6,-36 0,-30 0,-24 0,-24 0,-12 0,-12 0,-6 6,-0 12,-0 12,-0 276,-0 276,-0 282,-0 288,-6 288,-12 288,-12 288,-24 288,-24 288,-30 282,-36 276,-36"/>
<text text-anchor="middle" x="144" y="-14.3" font-family="Times,serif" font-size="14.00">{Full reports enriched with manual annotations}</text>
</g>
<!-- psi_info&#45;&gt;qcintegrator -->
<g id="edge36" class="edge"><title>psi_info&#45;&gt;qcintegrator</title>
<path fill="none" stroke="black" d="M99.2266,-578.705C106.844,-561.082 117,-532.756 117,-507 117,-507 117,-507 117,-177 117,-161.552 122.653,-145.375 128.786,-132.372"/>
<polygon fill="black" stroke="black" points="132.081,-133.612 133.484,-123.11 125.839,-130.445 132.081,-133.612"/>
</g>
<!-- launcher&#45;&gt;tmxs -->
<g id="edge3" class="edge"><title>launcher&#45;&gt;tmxs</title>
<path fill="none" stroke="black" d="M959.602,-848.148C994.844,-848.148 1030.09,-848.148 1065.33,-848.148"/>
<polygon fill="black" stroke="black" points="1065.77,-851.648 1075.76,-848.148 1065.76,-844.648 1065.77,-851.648"/>
</g>
<!-- backuper&#45;&gt;zips -->
<g id="edge5" class="edge"><title>backuper&#45;&gt;zips</title>
<path fill="none" stroke="black" d="M1340.66,-848.148C1349.22,-848.148 1357.79,-848.148 1366.35,-848.148"/>
<polygon fill="black" stroke="black" points="1366.41,-851.648 1376.41,-848.148 1366.41,-844.648 1366.41,-851.648"/>
</g>
<!-- metacleaner&#45;&gt;tmxs_dedup -->
<g id="edge8" class="edge"><title>metacleaner&#45;&gt;tmxs_dedup</title>
<path fill="none" stroke="black" d="M1196.3,-777.081C1255.46,-796.709 1358.48,-822.717 1445,-802.5 1462.59,-798.39 1480.7,-790.225 1495.89,-782.069"/>
<polygon fill="black" stroke="black" points="1497.9,-784.953 1504.93,-777.027 1494.49,-778.838 1497.9,-784.953"/>
</g>
<!-- reporter&#45;&gt;syntheses -->
<g id="edge12" class="edge"><title>reporter&#45;&gt;syntheses</title>
<path fill="none" stroke="black" d="M1448.35,-632.969C1486.4,-614.634 1547.03,-585.424 1588.35,-565.513"/>
<polygon fill="black" stroke="black" points="1589.89,-568.658 1597.38,-561.164 1586.85,-562.352 1589.89,-568.658"/>
</g>
<!-- reporter&#45;&gt;fulls -->
<g id="edge13" class="edge"><title>reporter&#45;&gt;fulls</title>
<path fill="none" stroke="black" d="M1395.01,-632.969C1376.5,-615.456 1347.51,-588.022 1326.62,-568.247"/>
<polygon fill="black" stroke="black" points="1328.99,-565.672 1319.32,-561.341 1324.18,-570.757 1328.99,-565.672"/>
</g>
<!-- reporter&#45;&gt;uniqurls -->
<g id="edge14" class="edge"><title>reporter&#45;&gt;uniqurls</title>
<path fill="none" stroke="black" d="M1420.39,-632.969C1427.69,-616.148 1438.96,-590.173 1447.45,-570.624"/>
<polygon fill="black" stroke="black" points="1450.7,-571.907 1451.47,-561.341 1444.28,-569.121 1450.7,-571.907"/>
</g>
<!-- aggregator&#45;&gt;site_aggregs -->
<g id="edge17" class="edge"><title>aggregator&#45;&gt;site_aggregs</title>
<path fill="none" stroke="black" d="M1349.51,-451.994C1376.34,-441.968 1410.47,-429.213 1438.83,-418.617"/>
<polygon fill="black" stroke="black" points="1440.06,-421.893 1448.2,-415.114 1437.61,-415.335 1440.06,-421.893"/>
</g>
<!-- aggregator&#45;&gt;lpair_aggregs -->
<g id="edge18" class="edge"><title>aggregator&#45;&gt;lpair_aggregs</title>
<path fill="none" stroke="black" d="M1304,-451.813C1304,-443.789 1304,-434.047 1304,-425.069"/>
<polygon fill="black" stroke="black" points="1307.5,-425.029 1304,-415.029 1300.5,-425.029 1307.5,-425.029"/>
</g>
<!-- aggregator&#45;&gt;lpair_confmat -->
<g id="edge19" class="edge"><title>aggregator&#45;&gt;lpair_confmat</title>
<path fill="none" stroke="black" d="M1249.15,-451.994C1216.39,-441.838 1174.6,-428.879 1140.16,-418.204"/>
<polygon fill="black" stroke="black" points="1140.79,-414.732 1130.2,-415.114 1138.71,-421.418 1140.79,-414.732"/>
</g>
<!-- filter&#45;&gt;syntheses_filtered -->
<g id="edge40" class="edge"><title>filter&#45;&gt;syntheses_filtered</title>
<path fill="none" stroke="black" d="M1731.84,-451.813C1734.13,-443.702 1736.91,-433.836 1739.46,-424.777"/>
<polygon fill="black" stroke="black" points="1742.86,-425.603 1742.2,-415.029 1736.12,-423.705 1742.86,-425.603"/>
</g>
<!-- filter&#45;&gt;fulls_filtered -->
<g id="edge41" class="edge"><title>filter&#45;&gt;fulls_filtered</title>
<path fill="none" stroke="black" d="M1773.23,-451.994C1800.48,-441.968 1835.15,-429.213 1863.96,-418.617"/>
<polygon fill="black" stroke="black" points="1865.3,-421.851 1873.48,-415.114 1862.89,-415.281 1865.3,-421.851"/>
</g>
<!-- pprinter&#45;&gt;fulls_pp -->
<g id="edge45" class="edge"><title>pprinter&#45;&gt;fulls_pp</title>
<path fill="none" stroke="black" d="M705.955,-460.553C688.105,-457.819 668.213,-454.776 650,-452 544.744,-435.959 515.889,-433.048 407.72,-415.265"/>
<polygon fill="black" stroke="black" points="408.141,-411.787 397.705,-413.614 407.002,-418.694 408.141,-411.787"/>
</g>
<!-- pprinter&#45;&gt;lpair_confmat_pp -->
<g id="edge46" class="edge"><title>pprinter&#45;&gt;lpair_confmat_pp</title>
<path fill="none" stroke="black" d="M761,-451.813C761,-443.789 761,-434.047 761,-425.069"/>
<polygon fill="black" stroke="black" points="764.5,-425.029 761,-415.029 757.5,-425.029 764.5,-425.029"/>
</g>
<!-- dbdumper&#45;&gt;syntheses_db -->
<g id="edge24" class="edge"><title>dbdumper&#45;&gt;syntheses_db</title>
<path fill="none" stroke="black" d="M1595,-305.813C1595,-297.789 1595,-288.047 1595,-279.069"/>
<polygon fill="black" stroke="black" points="1598.5,-279.029 1595,-269.029 1591.5,-279.029 1598.5,-279.029"/>
</g>
<!-- dbdumper&#45;&gt;fulls_db -->
<g id="edge25" class="edge"><title>dbdumper&#45;&gt;fulls_db</title>
<path fill="none" stroke="black" d="M1562.19,-305.994C1543.51,-296.317 1519.93,-284.097 1499.93,-273.73"/>
<polygon fill="black" stroke="black" points="1501.51,-270.607 1491.02,-269.114 1498.29,-276.822 1501.51,-270.607"/>
</g>
<!-- dbdumper&#45;&gt;site_db -->
<g id="edge26" class="edge"><title>dbdumper&#45;&gt;site_db</title>
<path fill="none" stroke="black" d="M1655.76,-313.36C1721.32,-302.944 1829.06,-285.781 1931.86,-269.182"/>
<polygon fill="black" stroke="black" points="1932.47,-272.628 1941.79,-267.578 1931.36,-265.717 1932.47,-272.628"/>
</g>
<!-- dbdumper&#45;&gt;lpair_db -->
<g id="edge27" class="edge"><title>dbdumper&#45;&gt;lpair_db</title>
<path fill="none" stroke="black" d="M1644.58,-305.994C1673.94,-295.925 1711.32,-283.102 1742.29,-272.479"/>
<polygon fill="black" stroke="black" points="1743.78,-275.669 1752.11,-269.114 1741.51,-269.047 1743.78,-275.669"/>
</g>
<!-- dbretriever&#45;&gt;syntheses_q -->
<g id="edge50" class="edge"><title>dbretriever&#45;&gt;syntheses_q</title>
<path fill="none" stroke="black" d="M1658.66,-91.8508C1690.18,-85.5546 1728.72,-77.4296 1763,-69 1799.62,-59.9959 1840.13,-48.5901 1873.04,-38.9465"/>
<polygon fill="black" stroke="black" points="1874.39,-42.1967 1883,-36.0148 1872.41,-35.4816 1874.39,-42.1967"/>
<text text-anchor="middle" x="1864.5" y="-57.8" font-family="Times,serif" font-size="14.00">웃 (query, dump)</text>
</g>
<!-- dbretriever&#45;&gt;fulls_q -->
<g id="edge51" class="edge"><title>dbretriever&#45;&gt;fulls_q</title>
<path fill="none" stroke="black" d="M1531.38,-93.0777C1499.98,-87.0775 1461.69,-78.8473 1428,-69 1400.28,-60.8982 1370.1,-49.6589 1345.61,-39.8881"/>
<polygon fill="black" stroke="black" points="1346.76,-36.5777 1336.18,-36.0855 1344.14,-43.0702 1346.76,-36.5777"/>
<text text-anchor="middle" x="1476.5" y="-57.8" font-family="Times,serif" font-size="14.00">웃 (query, dump)</text>
</g>
<!-- dbretriever&#45;&gt;site_q -->
<g id="edge55" class="edge"><title>dbretriever&#45;&gt;site_q</title>
<path fill="none" stroke="black" d="M1571.32,-86.799C1553.64,-73.9529 1529.28,-56.2583 1509.89,-42.1671"/>
<polygon fill="black" stroke="black" points="1511.79,-39.2215 1501.64,-36.1754 1507.67,-44.8847 1511.79,-39.2215"/>
<text text-anchor="middle" x="1591.5" y="-57.8" font-family="Times,serif" font-size="14.00">웃 (query, dump)</text>
</g>
<!-- dbretriever&#45;&gt;lpair_q -->
<g id="edge56" class="edge"><title>dbretriever&#45;&gt;lpair_q</title>
<path fill="none" stroke="black" d="M1618.97,-86.9759C1626.95,-81.2837 1635.87,-74.8894 1644,-69 1656.03,-60.2814 1669.2,-50.6258 1680.71,-42.1431"/>
<polygon fill="black" stroke="black" points="1682.8,-44.9557 1688.77,-36.2039 1678.64,-39.3218 1682.8,-44.9557"/>
<text text-anchor="middle" x="1710.5" y="-57.8" font-family="Times,serif" font-size="14.00">웃 (query, dump)</text>
</g>
<!-- sampler&#45;&gt;fulls_sampled -->
<g id="edge31" class="edge"><title>sampler&#45;&gt;fulls_sampled</title>
<path fill="none" stroke="black" d="M563.048,-451.994C550.032,-442.753 533.75,-431.192 519.594,-421.142"/>
<polygon fill="black" stroke="black" points="521.284,-418.049 511.104,-415.114 517.231,-423.757 521.284,-418.049"/>
</g>
<!-- plotter&#45;&gt;lpair_histo -->
<g id="edge29" class="edge"><title>plotter&#45;&gt;lpair_histo</title>
<path fill="none" stroke="black" d="M1291.03,-305.813C1290.58,-297.789 1290.03,-288.047 1289.53,-279.069"/>
<polygon fill="black" stroke="black" points="1293.02,-278.816 1288.96,-269.029 1286.03,-279.21 1293.02,-278.816"/>
</g>
<!-- pgloader&#45;&gt;dbretriever -->
<g id="edge54" class="edge"><title>pgloader&#45;&gt;dbretriever</title>
<path fill="none" stroke="black" d="M1770.11,-166.062C1739.4,-155.528 1692.19,-139.335 1654.52,-126.416"/>
<polygon fill="black" stroke="black" points="1655.27,-122.971 1644.67,-123.038 1653,-129.593 1655.27,-122.971"/>
</g>
<!-- qcintegrator&#45;&gt;fulls_enriched -->
<g id="edge37" class="edge"><title>qcintegrator&#45;&gt;fulls_enriched</title>
<path fill="none" stroke="black" d="M144,-86.799C144,-75.1626 144,-59.5479 144,-46.2368"/>
<polygon fill="black" stroke="black" points="147.5,-46.1754 144,-36.1754 140.5,-46.1755 147.5,-46.1754"/>
</g>
</g>
</svg>
