<?xml version="1.0" encoding="UTF-8" standalone="no"?>
<!DOCTYPE svg PUBLIC "-//W3C//DTD SVG 1.1//EN"
 "http://www.w3.org/Graphics/SVG/1.1/DTD/svg11.dtd">
<!-- Generated by graphviz version 2.38.0 (20140413.2041)
 -->
<!-- Title: %3 Pages: 1 -->
<svg width="2356pt" height="899pt"
 viewBox="0.00 0.00 2356.00 899.30" xmlns="http://www.w3.org/2000/svg" xmlns:xlink="http://www.w3.org/1999/xlink">
<g id="graph0" class="graph" transform="scale(1 1) rotate(0) translate(4 895.296)">
<title>%3</title>
<polygon fill="white" stroke="none" points="-4,4 -4,-895.296 2352,-895.296 2352,4 -4,4"/>
<text text-anchor="middle" x="1174" y="-876.096" font-family="Times,serif" font-size="14.00">ELDA Crawled Data Management Toolkit</text>
<!-- human -->
<g id="node1" class="node"><title>human</title>
<ellipse fill="none" stroke="black" cx="350.5" cy="-848.148" rx="20.2975" ry="20.2975"/>
<text text-anchor="middle" x="350.5" y="-844.448" font-family="Times,serif" font-size="14.00">웃</text>
</g>
<!-- urls -->
<g id="node2" class="node"><title>urls</title>
<path fill="none" stroke="black" d="M591,-866.148C591,-866.148 520,-866.148 520,-866.148 514,-866.148 508,-860.148 508,-854.148 508,-854.148 508,-842.148 508,-842.148 508,-836.148 514,-830.148 520,-830.148 520,-830.148 591,-830.148 591,-830.148 597,-830.148 603,-836.148 603,-842.148 603,-842.148 603,-854.148 603,-854.148 603,-860.148 597,-866.148 591,-866.148"/>
<text text-anchor="middle" x="555.5" y="-844.448" font-family="Times,serif" font-size="14.00">{Input URLs}</text>
</g>
<!-- human&#45;&gt;urls -->
<g id="edge1" class="edge"><title>human&#45;&gt;urls</title>
<path fill="none" stroke="black" d="M370.906,-848.148C400.19,-848.148 455.274,-848.148 497.677,-848.148"/>
<polygon fill="black" stroke="black" points="497.885,-851.648 507.885,-848.148 497.885,-844.648 497.885,-851.648"/>
<text text-anchor="middle" x="439.324" y="-854.948" font-family="Times,serif" font-size="14.00">identification</text>
</g>
<!-- fulls_sampled_annotated -->
<g id="node29" class="node"><title>fulls_sampled_annotated</title>
<path fill="none" stroke="black" d="M157,-723C157,-723 12,-723 12,-723 6,-723 1.42109e-14,-717 1.42109e-14,-711 1.42109e-14,-711 1.42109e-14,-699 1.42109e-14,-699 1.42109e-14,-693 6,-687 12,-687 12,-687 157,-687 157,-687 163,-687 169,-693 169,-699 169,-699 169,-711 169,-711 169,-717 163,-723 157,-723"/>
<text text-anchor="middle" x="84.5" y="-701.3" font-family="Times,serif" font-size="14.00">{Manually&#45;annotated TUs}</text>
</g>
<!-- human&#45;&gt;fulls_sampled_annotated -->
<g id="edge33" class="edge"><title>human&#45;&gt;fulls_sampled_annotated</title>
<path fill="none" stroke="black" d="M330.222,-847.54C273.889,-848.155 117.532,-846.48 85.5,-810 67.3165,-789.292 70.4593,-756.309 75.9624,-733.049"/>
<polygon fill="black" stroke="black" points="79.4138,-733.688 78.5889,-723.125 72.6468,-731.897 79.4138,-733.688"/>
<text text-anchor="middle" x="135.5" y="-798.8" font-family="Times,serif" font-size="14.00">manual validation</text>
</g>
<!-- psi_info -->
<g id="node31" class="node"><title>psi_info</title>
<path fill="none" stroke="black" d="M272,-615C272,-615 117,-615 117,-615 111,-615 105,-609 105,-603 105,-603 105,-591 105,-591 105,-585 111,-579 117,-579 117,-579 272,-579 272,-579 278,-579 284,-585 284,-591 284,-591 284,-603 284,-603 284,-609 278,-615 272,-615"/>
<text text-anchor="middle" x="194.5" y="-593.3" font-family="Times,serif" font-size="14.00">{PSI validation information}</text>
</g>
<!-- human&#45;&gt;psi_info -->
<g id="edge34" class="edge"><title>human&#45;&gt;psi_info</title>
<path fill="none" stroke="black" d="M330.689,-843.242C299.928,-836.039 241.329,-817.533 213.5,-777 182.107,-731.275 185.11,-662.916 189.906,-625.284"/>
<polygon fill="black" stroke="black" points="193.413,-625.481 191.347,-615.089 186.482,-624.501 193.413,-625.481"/>
<text text-anchor="middle" x="275" y="-755.3" font-family="Times,serif" font-size="14.00">manual PSI validation</text>
</g>
<!-- launcher -->
<g id="node32" class="node"><title>launcher</title>
<polygon fill="none" stroke="black" points="774,-866.148 661,-866.148 661,-830.148 774,-830.148 774,-866.148"/>
<text text-anchor="middle" x="717.5" y="-844.448" font-family="Times,serif" font-size="14.00">crawler_launcher</text>
</g>
<!-- urls&#45;&gt;launcher -->
<g id="edge2" class="edge"><title>urls&#45;&gt;launcher</title>
<path fill="none" stroke="black" d="M603.277,-848.148C619.016,-848.148 634.754,-848.148 650.492,-848.148"/>
<polygon fill="black" stroke="black" points="650.835,-851.648 660.835,-848.148 650.835,-844.648 650.835,-851.648"/>
</g>
<!-- tmxs -->
<g id="node3" class="node"><title>tmxs</title>
<path fill="none" stroke="black" d="M894.5,-866.148C894.5,-866.148 832.5,-866.148 832.5,-866.148 826.5,-866.148 820.5,-860.148 820.5,-854.148 820.5,-854.148 820.5,-842.148 820.5,-842.148 820.5,-836.148 826.5,-830.148 832.5,-830.148 832.5,-830.148 894.5,-830.148 894.5,-830.148 900.5,-830.148 906.5,-836.148 906.5,-842.148 906.5,-842.148 906.5,-854.148 906.5,-854.148 906.5,-860.148 900.5,-866.148 894.5,-866.148"/>
<text text-anchor="middle" x="863.5" y="-844.448" font-family="Times,serif" font-size="14.00">{TMX files}</text>
</g>
<!-- backuper -->
<g id="node33" class="node"><title>backuper</title>
<polygon fill="none" stroke="black" points="1076,-866.148 961,-866.148 961,-830.148 1076,-830.148 1076,-866.148"/>
<text text-anchor="middle" x="1018.5" y="-844.448" font-family="Times,serif" font-size="14.00">crawler_backuper</text>
</g>
<!-- tmxs&#45;&gt;backuper -->
<g id="edge4" class="edge"><title>tmxs&#45;&gt;backuper</title>
<path fill="none" stroke="black" d="M906.791,-848.148C921.446,-848.148 936.1,-848.148 950.755,-848.148"/>
<polygon fill="black" stroke="black" points="950.9,-851.648 960.9,-848.148 950.9,-844.648 950.9,-851.648"/>
</g>
<!-- metacleaner -->
<g id="node34" class="node"><title>metacleaner</title>
<polygon fill="none" stroke="black" points="930,-777 797,-777 797,-741 930,-741 930,-777"/>
<text text-anchor="middle" x="863.5" y="-755.3" font-family="Times,serif" font-size="14.00">crawler_metacleaner</text>
</g>
<!-- tmxs&#45;&gt;metacleaner -->
<g id="edge7" class="edge"><title>tmxs&#45;&gt;metacleaner</title>
<path fill="none" stroke="black" d="M863.5,-829.931C863.5,-817.756 863.5,-801.184 863.5,-787.228"/>
<polygon fill="black" stroke="black" points="867,-787.182 863.5,-777.182 860,-787.182 867,-787.182"/>
</g>
<!-- reporter -->
<g id="node35" class="node"><title>reporter</title>
<polygon fill="none" stroke="black" points="1273.5,-669 1163.5,-669 1163.5,-633 1273.5,-633 1273.5,-669"/>
<text text-anchor="middle" x="1218.5" y="-647.3" font-family="Times,serif" font-size="14.00">crawler_reporter</text>
</g>
<!-- tmxs&#45;&gt;reporter -->
<g id="edge6" class="edge"><title>tmxs&#45;&gt;reporter</title>
<path fill="none" stroke="black" d="M881.929,-830.139C897.32,-815.933 919.841,-795.146 939.5,-777 956.834,-761 958.618,-753.694 978.5,-741 1031.58,-707.112 1050.36,-708.644 1109.5,-687 1123.6,-681.838 1138.88,-676.674 1153.4,-671.959"/>
<polygon fill="black" stroke="black" points="1154.87,-675.165 1163.31,-668.772 1152.72,-668.501 1154.87,-675.165"/>
</g>
<!-- tmxs_dedup -->
<g id="node4" class="node"><title>tmxs_dedup</title>
<path fill="none" stroke="black" d="M1116,-777C1116,-777 999,-777 999,-777 993,-777 987,-771 987,-765 987,-765 987,-753 987,-753 987,-747 993,-741 999,-741 999,-741 1116,-741 1116,-741 1122,-741 1128,-747 1128,-753 1128,-753 1128,-765 1128,-765 1128,-771 1122,-777 1116,-777"/>
<text text-anchor="middle" x="1057.5" y="-755.3" font-family="Times,serif" font-size="14.00">{Deduplicated TMXs}</text>
</g>
<!-- tmxs_dedup&#45;&gt;reporter -->
<g id="edge9" class="edge"><title>tmxs_dedup&#45;&gt;reporter</title>
<path fill="none" stroke="black" d="M1083.37,-740.969C1110.63,-723.019 1153.73,-694.646 1183.9,-674.78"/>
<polygon fill="black" stroke="black" points="1186,-677.587 1192.43,-669.164 1182.15,-671.74 1186,-677.587"/>
</g>
<!-- tmxs_deback -->
<g id="node5" class="node"><title>tmxs_deback</title>
<path fill="none" stroke="black" d="M1279,-777C1279,-777 1158,-777 1158,-777 1152,-777 1146,-771 1146,-765 1146,-765 1146,-753 1146,-753 1146,-747 1152,-741 1158,-741 1158,-741 1279,-741 1279,-741 1285,-741 1291,-747 1291,-753 1291,-753 1291,-765 1291,-765 1291,-771 1285,-777 1279,-777"/>
<text text-anchor="middle" x="1218.5" y="-755.3" font-family="Times,serif" font-size="14.00">{De&#45;backed&#45;up TMXs}</text>
</g>
<!-- tmxs_deback&#45;&gt;reporter -->
<g id="edge11" class="edge"><title>tmxs_deback&#45;&gt;reporter</title>
<path fill="none" stroke="black" d="M1218.5,-740.969C1218.5,-724.378 1218.5,-698.883 1218.5,-679.431"/>
<polygon fill="black" stroke="black" points="1222,-679.341 1218.5,-669.341 1215,-679.341 1222,-679.341"/>
</g>
<!-- zips -->
<g id="node6" class="node"><title>zips</title>
<path fill="none" stroke="black" d="M1210,-866.148C1210,-866.148 1133,-866.148 1133,-866.148 1127,-866.148 1121,-860.148 1121,-854.148 1121,-854.148 1121,-842.148 1121,-842.148 1121,-836.148 1127,-830.148 1133,-830.148 1133,-830.148 1210,-830.148 1210,-830.148 1216,-830.148 1222,-836.148 1222,-842.148 1222,-842.148 1222,-854.148 1222,-854.148 1222,-860.148 1216,-866.148 1210,-866.148"/>
<text text-anchor="middle" x="1171.5" y="-844.448" font-family="Times,serif" font-size="14.00">{ZIP archives}</text>
</g>
<!-- zips&#45;&gt;tmxs_deback -->
<g id="edge10" class="edge"><title>zips&#45;&gt;tmxs_deback</title>
<path fill="none" stroke="black" d="M1180.79,-829.931C1187.54,-817.398 1196.82,-800.205 1204.48,-786.003"/>
<polygon fill="black" stroke="black" points="1207.57,-787.645 1209.23,-777.182 1201.41,-784.322 1207.57,-787.645"/>
<text text-anchor="middle" x="1228" y="-798.8" font-family="Times,serif" font-size="14.00">웃 (unzip)</text>
</g>
<!-- syntheses -->
<g id="node7" class="node"><title>syntheses</title>
<path fill="none" stroke="black" d="M1632.5,-561C1632.5,-561 1530.5,-561 1530.5,-561 1524.5,-561 1518.5,-555 1518.5,-549 1518.5,-549 1518.5,-537 1518.5,-537 1518.5,-531 1524.5,-525 1530.5,-525 1530.5,-525 1632.5,-525 1632.5,-525 1638.5,-525 1644.5,-531 1644.5,-537 1644.5,-537 1644.5,-549 1644.5,-549 1644.5,-555 1638.5,-561 1632.5,-561"/>
<text text-anchor="middle" x="1581.5" y="-539.3" font-family="Times,serif" font-size="14.00">{Synthesis reports}</text>
</g>
<!-- aggregator -->
<g id="node36" class="node"><title>aggregator</title>
<polygon fill="none" stroke="black" points="1677.5,-488 1555.5,-488 1555.5,-452 1677.5,-452 1677.5,-488"/>
<text text-anchor="middle" x="1616.5" y="-466.3" font-family="Times,serif" font-size="14.00">crawler_aggregator</text>
</g>
<!-- syntheses&#45;&gt;aggregator -->
<g id="edge15" class="edge"><title>syntheses&#45;&gt;aggregator</title>
<path fill="none" stroke="black" d="M1589.97,-524.813C1594.06,-516.528 1599.04,-506.41 1603.59,-497.193"/>
<polygon fill="black" stroke="black" points="1606.82,-498.546 1608.11,-488.029 1600.54,-495.451 1606.82,-498.546"/>
</g>
<!-- filter -->
<g id="node37" class="node"><title>filter</title>
<polygon fill="none" stroke="black" points="1450.5,-488 1358.5,-488 1358.5,-452 1450.5,-452 1450.5,-488"/>
<text text-anchor="middle" x="1404.5" y="-466.3" font-family="Times,serif" font-size="14.00">crawler_filter</text>
</g>
<!-- syntheses&#45;&gt;filter -->
<g id="edge40" class="edge"><title>syntheses&#45;&gt;filter</title>
<path fill="none" stroke="black" d="M1539.1,-524.994C1514.33,-515.055 1482.86,-502.434 1456.59,-491.894"/>
<polygon fill="black" stroke="black" points="1457.75,-488.588 1447.16,-488.114 1455.14,-495.085 1457.75,-488.588"/>
</g>
<!-- dbdumper -->
<g id="node39" class="node"><title>dbdumper</title>
<polygon fill="none" stroke="black" points="1894,-342 1773,-342 1773,-306 1894,-306 1894,-342"/>
<text text-anchor="middle" x="1833.5" y="-320.3" font-family="Times,serif" font-size="14.00">crawler_dbdumper</text>
</g>
<!-- syntheses&#45;&gt;dbdumper -->
<g id="edge20" class="edge"><title>syntheses&#45;&gt;dbdumper</title>
<path fill="none" stroke="black" d="M1644.76,-539.356C1725.63,-532.173 1862.78,-506.35 1926.5,-415 1935.65,-401.877 1934.48,-392.866 1926.5,-379 1918.71,-365.462 1906.07,-355.004 1892.59,-347.061"/>
<polygon fill="black" stroke="black" points="1894.11,-343.903 1883.66,-342.196 1890.77,-350.051 1894.11,-343.903"/>
</g>
<!-- syntheses_db -->
<g id="node8" class="node"><title>syntheses_db</title>
<path fill="none" stroke="black" d="M1744.5,-269C1744.5,-269 1634.5,-269 1634.5,-269 1628.5,-269 1622.5,-263 1622.5,-257 1622.5,-257 1622.5,-245 1622.5,-245 1622.5,-239 1628.5,-233 1634.5,-233 1634.5,-233 1744.5,-233 1744.5,-233 1750.5,-233 1756.5,-239 1756.5,-245 1756.5,-245 1756.5,-257 1756.5,-257 1756.5,-263 1750.5,-269 1744.5,-269"/>
<text text-anchor="middle" x="1689.5" y="-247.3" font-family="Times,serif" font-size="14.00">{Synthesis database}</text>
</g>
<!-- dbretriever -->
<g id="node40" class="node"><title>dbretriever</title>
<polygon fill="none" stroke="black" points="1890,-123 1763,-123 1763,-87 1890,-87 1890,-123"/>
<text text-anchor="middle" x="1826.5" y="-101.3" font-family="Times,serif" font-size="14.00">crawler_dbretriever</text>
</g>
<!-- syntheses_db&#45;&gt;dbretriever -->
<g id="edge50" class="edge"><title>syntheses_db&#45;&gt;dbretriever</title>
<path fill="none" stroke="black" d="M1705.75,-232.916C1729.96,-207.475 1775.59,-159.513 1803.3,-130.389"/>
<polygon fill="black" stroke="black" points="1805.91,-132.719 1810.27,-123.062 1800.84,-127.894 1805.91,-132.719"/>
</g>
<!-- syntheses_q -->
<g id="node9" class="node"><title>syntheses_q</title>
<path fill="none" stroke="black" d="M1635.5,-36C1635.5,-36 1487.5,-36 1487.5,-36 1481.5,-36 1475.5,-30 1475.5,-24 1475.5,-24 1475.5,-12 1475.5,-12 1475.5,-6 1481.5,-0 1487.5,-0 1487.5,-0 1635.5,-0 1635.5,-0 1641.5,-0 1647.5,-6 1647.5,-12 1647.5,-12 1647.5,-24 1647.5,-24 1647.5,-30 1641.5,-36 1635.5,-36"/>
<text text-anchor="middle" x="1561.5" y="-14.3" font-family="Times,serif" font-size="14.00">{Queried synthesis reports}</text>
</g>
<!-- syntheses_m -->
<g id="node10" class="node"><title>syntheses_m</title>
<path fill="none" stroke="black" d="M1397,-866.148C1397,-866.148 1252,-866.148 1252,-866.148 1246,-866.148 1240,-860.148 1240,-854.148 1240,-854.148 1240,-842.148 1240,-842.148 1240,-836.148 1246,-830.148 1252,-830.148 1252,-830.148 1397,-830.148 1397,-830.148 1403,-830.148 1409,-836.148 1409,-842.148 1409,-842.148 1409,-854.148 1409,-854.148 1409,-860.148 1403,-866.148 1397,-866.148"/>
<text text-anchor="middle" x="1324.5" y="-844.448" font-family="Times,serif" font-size="14.00">{Merged synthesis reports}</text>
</g>
<!-- syntheses_filtered -->
<g id="node11" class="node"><title>syntheses_filtered</title>
<path fill="none" stroke="black" d="M1487,-415C1487,-415 1340,-415 1340,-415 1334,-415 1328,-409 1328,-403 1328,-403 1328,-391 1328,-391 1328,-385 1334,-379 1340,-379 1340,-379 1487,-379 1487,-379 1493,-379 1499,-385 1499,-391 1499,-391 1499,-403 1499,-403 1499,-409 1493,-415 1487,-415"/>
<text text-anchor="middle" x="1413.5" y="-393.3" font-family="Times,serif" font-size="14.00">{Filtered synthesis reports}</text>
</g>
<!-- fulls -->
<g id="node12" class="node"><title>fulls</title>
<path fill="none" stroke="black" d="M1421,-561C1421,-561 1350,-561 1350,-561 1344,-561 1338,-555 1338,-549 1338,-549 1338,-537 1338,-537 1338,-531 1344,-525 1350,-525 1350,-525 1421,-525 1421,-525 1427,-525 1433,-531 1433,-537 1433,-537 1433,-549 1433,-549 1433,-555 1427,-561 1421,-561"/>
<text text-anchor="middle" x="1385.5" y="-539.3" font-family="Times,serif" font-size="14.00">{Full reports}</text>
</g>
<!-- fulls&#45;&gt;aggregator -->
<g id="edge16" class="edge"><title>fulls&#45;&gt;aggregator</title>
<path fill="none" stroke="black" d="M1433.04,-534.234C1464.35,-528.416 1505.97,-519.334 1541.5,-507 1552.9,-503.044 1564.84,-497.836 1575.76,-492.616"/>
<polygon fill="black" stroke="black" points="1577.62,-495.602 1585.06,-488.055 1574.54,-489.318 1577.62,-495.602"/>
</g>
<!-- fulls&#45;&gt;filter -->
<g id="edge41" class="edge"><title>fulls&#45;&gt;filter</title>
<path fill="none" stroke="black" d="M1390.1,-524.813C1392.27,-516.702 1394.91,-506.836 1397.33,-497.777"/>
<polygon fill="black" stroke="black" points="1400.74,-498.594 1399.94,-488.029 1393.98,-496.784 1400.74,-498.594"/>
</g>
<!-- pprinter -->
<g id="node38" class="node"><title>pprinter</title>
<polygon fill="none" stroke="black" points="893.5,-488 783.5,-488 783.5,-452 893.5,-452 893.5,-488"/>
<text text-anchor="middle" x="838.5" y="-466.3" font-family="Times,serif" font-size="14.00">crawler_pprinter</text>
</g>
<!-- fulls&#45;&gt;pprinter -->
<g id="edge44" class="edge"><title>fulls&#45;&gt;pprinter</title>
<path fill="none" stroke="black" d="M1337.75,-528.678C1331.97,-527.311 1326.12,-526.044 1320.5,-525 1172.88,-497.574 997.052,-482.156 903.936,-475.323"/>
<polygon fill="black" stroke="black" points="904.045,-471.822 893.818,-474.591 903.539,-478.804 904.045,-471.822"/>
</g>
<!-- fulls&#45;&gt;dbdumper -->
<g id="edge21" class="edge"><title>fulls&#45;&gt;dbdumper</title>
<path fill="none" stroke="black" d="M1412.52,-524.853C1427.16,-514.947 1445.14,-501.75 1459.5,-488 1481.88,-466.564 1519.94,-394.976 1546.5,-379 1582.13,-357.564 1689.94,-341.428 1762.79,-332.601"/>
<polygon fill="black" stroke="black" points="1763.31,-336.063 1772.83,-331.404 1762.49,-329.112 1763.31,-336.063"/>
</g>
<!-- sampler -->
<g id="node41" class="node"><title>sampler</title>
<polygon fill="none" stroke="black" points="1176,-488 1067,-488 1067,-452 1176,-452 1176,-488"/>
<text text-anchor="middle" x="1121.5" y="-466.3" font-family="Times,serif" font-size="14.00">crawler_sampler</text>
</g>
<!-- fulls&#45;&gt;sampler -->
<g id="edge30" class="edge"><title>fulls&#45;&gt;sampler</title>
<path fill="none" stroke="black" d="M1338,-529.225C1295.59,-517.819 1233.1,-501.014 1186.15,-488.387"/>
<polygon fill="black" stroke="black" points="1186.94,-484.976 1176.38,-485.759 1185.13,-491.736 1186.94,-484.976"/>
</g>
<!-- fulls_db -->
<g id="node13" class="node"><title>fulls_db</title>
<path fill="none" stroke="black" d="M1866,-269C1866,-269 1787,-269 1787,-269 1781,-269 1775,-263 1775,-257 1775,-257 1775,-245 1775,-245 1775,-239 1781,-233 1787,-233 1787,-233 1866,-233 1866,-233 1872,-233 1878,-239 1878,-245 1878,-245 1878,-257 1878,-257 1878,-263 1872,-269 1866,-269"/>
<text text-anchor="middle" x="1826.5" y="-247.3" font-family="Times,serif" font-size="14.00">{Full database}</text>
</g>
<!-- fulls_db&#45;&gt;dbretriever -->
<g id="edge51" class="edge"><title>fulls_db&#45;&gt;dbretriever</title>
<path fill="none" stroke="black" d="M1826.5,-232.916C1826.5,-208.341 1826.5,-162.753 1826.5,-133.427"/>
<polygon fill="black" stroke="black" points="1830,-133.062 1826.5,-123.062 1823,-133.062 1830,-133.062"/>
</g>
<!-- fulls_filtered -->
<g id="node14" class="node"><title>fulls_filtered</title>
<path fill="none" stroke="black" d="M1298,-415C1298,-415 1183,-415 1183,-415 1177,-415 1171,-409 1171,-403 1171,-403 1171,-391 1171,-391 1171,-385 1177,-379 1183,-379 1183,-379 1298,-379 1298,-379 1304,-379 1310,-385 1310,-391 1310,-391 1310,-403 1310,-403 1310,-409 1304,-415 1298,-415"/>
<text text-anchor="middle" x="1240.5" y="-393.3" font-family="Times,serif" font-size="14.00">{Filtered full reports}</text>
</g>
<!-- fulls_sampled -->
<g id="node15" class="node"><title>fulls_sampled</title>
<path fill="none" stroke="black" d="M898,-415C898,-415 779,-415 779,-415 773,-415 767,-409 767,-403 767,-403 767,-391 767,-391 767,-385 773,-379 779,-379 779,-379 898,-379 898,-379 904,-379 910,-385 910,-391 910,-391 910,-403 910,-403 910,-409 904,-415 898,-415"/>
<text text-anchor="middle" x="838.5" y="-393.3" font-family="Times,serif" font-size="14.00">{Sampled full reports}</text>
</g>
<!-- fulls_sampled&#45;&gt;human -->
<g id="edge32" class="edge"><title>fulls_sampled&#45;&gt;human</title>
<path fill="none" stroke="black" d="M817.885,-415.091C805.267,-425.626 788.844,-439.473 774.5,-452 657.181,-554.46 628.019,-580.346 514.5,-687 462.362,-735.985 402.58,-795.143 371.598,-826.033"/>
<polygon fill="black" stroke="black" points="368.969,-823.712 364.364,-833.254 373.914,-828.666 368.969,-823.712"/>
</g>
<!-- fulls_sampled&#45;&gt;pprinter -->
<g id="edge45" class="edge"><title>fulls_sampled&#45;&gt;pprinter</title>
<path fill="none" stroke="black" d="M838.5,-415.029C838.5,-423.029 838.5,-432.765 838.5,-441.753"/>
<polygon fill="black" stroke="black" points="835,-441.813 838.5,-451.813 842,-441.813 835,-441.813"/>
</g>
<!-- fulls_q -->
<g id="node16" class="node"><title>fulls_q</title>
<path fill="none" stroke="black" d="M1793.5,-36C1793.5,-36 1677.5,-36 1677.5,-36 1671.5,-36 1665.5,-30 1665.5,-24 1665.5,-24 1665.5,-12 1665.5,-12 1665.5,-6 1671.5,-0 1677.5,-0 1677.5,-0 1793.5,-0 1793.5,-0 1799.5,-0 1805.5,-6 1805.5,-12 1805.5,-12 1805.5,-24 1805.5,-24 1805.5,-30 1799.5,-36 1793.5,-36"/>
<text text-anchor="middle" x="1735.5" y="-14.3" font-family="Times,serif" font-size="14.00">{Queried full reports}</text>
</g>
<!-- fulls_m -->
<g id="node17" class="node"><title>fulls_m</title>
<path fill="none" stroke="black" d="M1552,-866.148C1552,-866.148 1439,-866.148 1439,-866.148 1433,-866.148 1427,-860.148 1427,-854.148 1427,-854.148 1427,-842.148 1427,-842.148 1427,-836.148 1433,-830.148 1439,-830.148 1439,-830.148 1552,-830.148 1552,-830.148 1558,-830.148 1564,-836.148 1564,-842.148 1564,-842.148 1564,-854.148 1564,-854.148 1564,-860.148 1558,-866.148 1552,-866.148"/>
<text text-anchor="middle" x="1495.5" y="-844.448" font-family="Times,serif" font-size="14.00">{Merged full reports}</text>
</g>
<!-- fulls_pp -->
<g id="node18" class="node"><title>fulls_pp</title>
<path fill="none" stroke="black" d="M312,-415C312,-415 163,-415 163,-415 157,-415 151,-409 151,-403 151,-403 151,-391 151,-391 151,-385 157,-379 163,-379 163,-379 312,-379 312,-379 318,-379 324,-385 324,-391 324,-391 324,-403 324,-403 324,-409 318,-415 312,-415"/>
<text text-anchor="middle" x="237.5" y="-393.3" font-family="Times,serif" font-size="14.00">{Pretty&#45;printed full reports}</text>
</g>
<!-- fulls_pp&#45;&gt;human -->
<g id="edge49" class="edge"><title>fulls_pp&#45;&gt;human</title>
<path fill="none" stroke="black" d="M303.56,-415.062C328.288,-425.768 350.5,-442.703 350.5,-469 350.5,-760 350.5,-760 350.5,-760 350.5,-779.113 350.5,-800.585 350.5,-817.432"/>
<polygon fill="black" stroke="black" points="347,-817.765 350.5,-827.765 354,-817.765 347,-817.765"/>
<text text-anchor="middle" x="391.5" y="-593.3" font-family="Times,serif" font-size="14.00">quality control</text>
</g>
<!-- uniqurls -->
<g id="node19" class="node"><title>uniqurls</title>
<path fill="none" stroke="black" d="M1299,-561C1299,-561 1138,-561 1138,-561 1132,-561 1126,-555 1126,-549 1126,-549 1126,-537 1126,-537 1126,-531 1132,-525 1138,-525 1138,-525 1299,-525 1299,-525 1305,-525 1311,-531 1311,-537 1311,-537 1311,-549 1311,-549 1311,-555 1305,-561 1299,-561"/>
<text text-anchor="middle" x="1218.5" y="-539.3" font-family="Times,serif" font-size="14.00">{Unique TU&#45;providing URLs}</text>
</g>
<!-- site_aggregs -->
<g id="node20" class="node"><title>site_aggregs</title>
<path fill="none" stroke="black" d="M1905,-415C1905,-415 1784,-415 1784,-415 1778,-415 1772,-409 1772,-403 1772,-403 1772,-391 1772,-391 1772,-385 1778,-379 1784,-379 1784,-379 1905,-379 1905,-379 1911,-379 1917,-385 1917,-391 1917,-391 1917,-403 1917,-403 1917,-409 1911,-415 1905,-415"/>
<text text-anchor="middle" x="1844.5" y="-393.3" font-family="Times,serif" font-size="14.00">{Per&#45;site aggregations}</text>
</g>
<!-- site_aggregs&#45;&gt;dbdumper -->
<g id="edge22" class="edge"><title>site_aggregs&#45;&gt;dbdumper</title>
<path fill="none" stroke="black" d="M1841.84,-378.813C1840.59,-370.789 1839.08,-361.047 1837.69,-352.069"/>
<polygon fill="black" stroke="black" points="1841.13,-351.375 1836.14,-342.029 1834.21,-352.447 1841.13,-351.375"/>
</g>
<!-- site_db -->
<g id="node21" class="node"><title>site_db</title>
<path fill="none" stroke="black" d="M2074.5,-269C2074.5,-269 1908.5,-269 1908.5,-269 1902.5,-269 1896.5,-263 1896.5,-257 1896.5,-257 1896.5,-245 1896.5,-245 1896.5,-239 1902.5,-233 1908.5,-233 1908.5,-233 2074.5,-233 2074.5,-233 2080.5,-233 2086.5,-239 2086.5,-245 2086.5,-245 2086.5,-257 2086.5,-257 2086.5,-263 2080.5,-269 2074.5,-269"/>
<text text-anchor="middle" x="1991.5" y="-247.3" font-family="Times,serif" font-size="14.00">{Per&#45;site aggregation database}</text>
</g>
<!-- pgloader -->
<g id="node43" class="node"><title>pgloader</title>
<ellipse fill="grey" stroke="black" cx="1991.5" cy="-178" rx="41.6928" ry="18"/>
<text text-anchor="middle" x="1991.5" y="-174.3" font-family="Times,serif" font-size="14.00">pgloader</text>
</g>
<!-- site_db&#45;&gt;pgloader -->
<g id="edge54" class="edge"><title>site_db&#45;&gt;pgloader</title>
<path fill="none" stroke="black" d="M1991.5,-232.813C1991.5,-224.789 1991.5,-215.047 1991.5,-206.069"/>
<polygon fill="black" stroke="black" points="1995,-206.029 1991.5,-196.029 1988,-206.029 1995,-206.029"/>
</g>
<!-- site_q -->
<g id="node22" class="node"><title>site_q</title>
<path fill="none" stroke="black" d="M1999,-36C1999,-36 1836,-36 1836,-36 1830,-36 1824,-30 1824,-24 1824,-24 1824,-12 1824,-12 1824,-6 1830,-0 1836,-0 1836,-0 1999,-0 1999,-0 2005,-0 2011,-6 2011,-12 2011,-12 2011,-24 2011,-24 2011,-30 2005,-36 1999,-36"/>
<text text-anchor="middle" x="1917.5" y="-14.3" font-family="Times,serif" font-size="14.00">{Queried per&#45;site aggregation}</text>
</g>
<!-- lpair_aggregs -->
<g id="node23" class="node"><title>lpair_aggregs</title>
<path fill="none" stroke="black" d="M1741.5,-415C1741.5,-415 1567.5,-415 1567.5,-415 1561.5,-415 1555.5,-409 1555.5,-403 1555.5,-403 1555.5,-391 1555.5,-391 1555.5,-385 1561.5,-379 1567.5,-379 1567.5,-379 1741.5,-379 1741.5,-379 1747.5,-379 1753.5,-385 1753.5,-391 1753.5,-391 1753.5,-403 1753.5,-403 1753.5,-409 1747.5,-415 1741.5,-415"/>
<text text-anchor="middle" x="1654.5" y="-393.3" font-family="Times,serif" font-size="14.00">{Per&#45;language pair aggregations}</text>
</g>
<!-- lpair_aggregs&#45;&gt;dbdumper -->
<g id="edge23" class="edge"><title>lpair_aggregs&#45;&gt;dbdumper</title>
<path fill="none" stroke="black" d="M1697.37,-378.994C1722.43,-369.055 1754.25,-356.434 1780.82,-345.894"/>
<polygon fill="black" stroke="black" points="1782.35,-349.054 1790.35,-342.114 1779.77,-342.547 1782.35,-349.054"/>
</g>
<!-- plotter -->
<g id="node42" class="node"><title>plotter</title>
<polygon fill="none" stroke="black" points="1553.5,-342 1451.5,-342 1451.5,-306 1553.5,-306 1553.5,-342"/>
<text text-anchor="middle" x="1502.5" y="-320.3" font-family="Times,serif" font-size="14.00">crawler_plotter</text>
</g>
<!-- lpair_aggregs&#45;&gt;plotter -->
<g id="edge28" class="edge"><title>lpair_aggregs&#45;&gt;plotter</title>
<path fill="none" stroke="black" d="M1618.09,-378.994C1597.19,-369.23 1570.74,-356.876 1548.42,-346.451"/>
<polygon fill="black" stroke="black" points="1549.68,-343.175 1539.14,-342.114 1546.72,-349.517 1549.68,-343.175"/>
</g>
<!-- lpair_q -->
<g id="node24" class="node"><title>lpair_q</title>
<path fill="none" stroke="black" d="M2262,-36C2262,-36 2041,-36 2041,-36 2035,-36 2029,-30 2029,-24 2029,-24 2029,-12 2029,-12 2029,-6 2035,-0 2041,-0 2041,-0 2262,-0 2262,-0 2268,-0 2274,-6 2274,-12 2274,-12 2274,-24 2274,-24 2274,-30 2268,-36 2262,-36"/>
<text text-anchor="middle" x="2151.5" y="-14.3" font-family="Times,serif" font-size="14.00">{Queried per&#45;language pair aggregations}</text>
</g>
<!-- lpair_confmat -->
<g id="node25" class="node"><title>lpair_confmat</title>
<path fill="none" stroke="black" d="M1140.5,-415C1140.5,-415 940.5,-415 940.5,-415 934.5,-415 928.5,-409 928.5,-403 928.5,-403 928.5,-391 928.5,-391 928.5,-385 934.5,-379 940.5,-379 940.5,-379 1140.5,-379 1140.5,-379 1146.5,-379 1152.5,-385 1152.5,-391 1152.5,-391 1152.5,-403 1152.5,-403 1152.5,-409 1146.5,-415 1140.5,-415"/>
<text text-anchor="middle" x="1040.5" y="-393.3" font-family="Times,serif" font-size="14.00">{Per&#45;language pair frequency matrix}</text>
</g>
<!-- lpair_confmat&#45;&gt;pprinter -->
<g id="edge46" class="edge"><title>lpair_confmat&#45;&gt;pprinter</title>
<path fill="none" stroke="black" d="M991.811,-415.114C963.108,-425.202 926.62,-438.027 896.442,-448.634"/>
<polygon fill="black" stroke="black" points="895.158,-445.376 886.884,-451.994 897.479,-451.98 895.158,-445.376"/>
</g>
<!-- lpair_confmat_pp -->
<g id="node26" class="node"><title>lpair_confmat_pp</title>
<path fill="none" stroke="black" d="M736.5,-415C736.5,-415 392.5,-415 392.5,-415 386.5,-415 380.5,-409 380.5,-403 380.5,-403 380.5,-391 380.5,-391 380.5,-385 386.5,-379 392.5,-379 392.5,-379 736.5,-379 736.5,-379 742.5,-379 748.5,-385 748.5,-391 748.5,-391 748.5,-403 748.5,-403 748.5,-409 742.5,-415 736.5,-415"/>
<text text-anchor="middle" x="564.5" y="-393.3" font-family="Times,serif" font-size="14.00">{Pretty&#45;printed (pruned) per&#45;language pair frequency matrices}</text>
</g>
<!-- lpair_db -->
<g id="node27" class="node"><title>lpair_db</title>
<path fill="none" stroke="black" d="M2336,-269C2336,-269 2117,-269 2117,-269 2111,-269 2105,-263 2105,-257 2105,-257 2105,-245 2105,-245 2105,-239 2111,-233 2117,-233 2117,-233 2336,-233 2336,-233 2342,-233 2348,-239 2348,-245 2348,-245 2348,-257 2348,-257 2348,-263 2342,-269 2336,-269"/>
<text text-anchor="middle" x="2226.5" y="-247.3" font-family="Times,serif" font-size="14.00">{Per&#45;language pair aggregation database}</text>
</g>
<!-- lpair_db&#45;&gt;pgloader -->
<g id="edge55" class="edge"><title>lpair_db&#45;&gt;pgloader</title>
<path fill="none" stroke="black" d="M2170.21,-232.994C2128.45,-220.378 2072.39,-203.439 2034.27,-191.921"/>
<polygon fill="black" stroke="black" points="2035.08,-188.511 2024.5,-188.97 2033.06,-195.212 2035.08,-188.511"/>
</g>
<!-- lpair_histo -->
<g id="node28" class="node"><title>lpair_histo</title>
<path fill="none" stroke="black" d="M1591,-269C1591,-269 1414,-269 1414,-269 1408,-269 1402,-263 1402,-257 1402,-257 1402,-245 1402,-245 1402,-239 1408,-233 1414,-233 1414,-233 1591,-233 1591,-233 1597,-233 1603,-239 1603,-245 1603,-245 1603,-257 1603,-257 1603,-263 1597,-269 1591,-269"/>
<text text-anchor="middle" x="1502.5" y="-247.3" font-family="Times,serif" font-size="14.00">{Per&#45;language pair histogram(s)}</text>
</g>
<!-- qcintegrator -->
<g id="node44" class="node"><title>qcintegrator</title>
<polygon fill="none" stroke="black" points="189,-123 56,-123 56,-87 189,-87 189,-123"/>
<text text-anchor="middle" x="122.5" y="-101.3" font-family="Times,serif" font-size="14.00">crawler_qcintegrator</text>
</g>
<!-- fulls_sampled_annotated&#45;&gt;qcintegrator -->
<g id="edge35" class="edge"><title>fulls_sampled_annotated&#45;&gt;qcintegrator</title>
<path fill="none" stroke="black" d="M84.5,-686.742C84.5,-665.763 84.5,-629.285 84.5,-598 84.5,-598 84.5,-598 84.5,-177 84.5,-160.529 92.548,-144.181 101.236,-131.331"/>
<polygon fill="black" stroke="black" points="104.217,-133.183 107.263,-123.036 98.5538,-129.069 104.217,-133.183"/>
</g>
<!-- fulls_enriched -->
<g id="node30" class="node"><title>fulls_enriched</title>
<path fill="none" stroke="black" d="M328.5,-36C328.5,-36 64.5,-36 64.5,-36 58.5,-36 52.5,-30 52.5,-24 52.5,-24 52.5,-12 52.5,-12 52.5,-6 58.5,-0 64.5,-0 64.5,-0 328.5,-0 328.5,-0 334.5,-0 340.5,-6 340.5,-12 340.5,-12 340.5,-24 340.5,-24 340.5,-30 334.5,-36 328.5,-36"/>
<text text-anchor="middle" x="196.5" y="-14.3" font-family="Times,serif" font-size="14.00">{Full reports enriched with manual annotations}</text>
</g>
<!-- tmxbuilder -->
<g id="node45" class="node"><title>tmxbuilder</title>
<polygon fill="none" stroke="black" points="374.5,-123 248.5,-123 248.5,-87 374.5,-87 374.5,-123"/>
<text text-anchor="middle" x="311.5" y="-101.3" font-family="Times,serif" font-size="14.00">crawler_tmxbuilder</text>
</g>
<!-- fulls_enriched&#45;&gt;tmxbuilder -->
<g id="edge38" class="edge"><title>fulls_enriched&#45;&gt;tmxbuilder</title>
<path fill="none" stroke="black" d="M219.737,-36.1754C237.109,-49.0151 261.047,-66.7089 280.118,-80.8049"/>
<polygon fill="black" stroke="black" points="278.106,-83.6697 288.228,-86.799 282.267,-78.0404 278.106,-83.6697"/>
</g>
<!-- psi_info&#45;&gt;qcintegrator -->
<g id="edge36" class="edge"><title>psi_info&#45;&gt;qcintegrator</title>
<path fill="none" stroke="black" d="M168.506,-578.826C147.883,-562.921 122.5,-537.209 122.5,-507 122.5,-507 122.5,-507 122.5,-177 122.5,-162.651 122.5,-146.671 122.5,-133.511"/>
<polygon fill="black" stroke="black" points="126,-133.216 122.5,-123.216 119,-133.216 126,-133.216"/>
</g>
<!-- launcher&#45;&gt;tmxs -->
<g id="edge3" class="edge"><title>launcher&#45;&gt;tmxs</title>
<path fill="none" stroke="black" d="M774.246,-848.148C786.231,-848.148 798.216,-848.148 810.2,-848.148"/>
<polygon fill="black" stroke="black" points="810.268,-851.648 820.268,-848.148 810.268,-844.648 810.268,-851.648"/>
</g>
<!-- backuper&#45;&gt;zips -->
<g id="edge5" class="edge"><title>backuper&#45;&gt;zips</title>
<path fill="none" stroke="black" d="M1076.17,-848.148C1087.69,-848.148 1099.21,-848.148 1110.73,-848.148"/>
<polygon fill="black" stroke="black" points="1110.86,-851.648 1120.86,-848.148 1110.86,-844.648 1110.86,-851.648"/>
</g>
<!-- metacleaner&#45;&gt;tmxs_dedup -->
<g id="edge8" class="edge"><title>metacleaner&#45;&gt;tmxs_dedup</title>
<path fill="none" stroke="black" d="M930.188,-759C945.69,-759 961.192,-759 976.694,-759"/>
<polygon fill="black" stroke="black" points="976.881,-762.5 986.881,-759 976.881,-755.5 976.881,-762.5"/>
</g>
<!-- reporter&#45;&gt;syntheses -->
<g id="edge12" class="edge"><title>reporter&#45;&gt;syntheses</title>
<path fill="none" stroke="black" d="M1273.63,-633.901C1337.81,-615.16 1443.84,-584.199 1513.18,-563.949"/>
<polygon fill="black" stroke="black" points="1514.52,-567.205 1523.14,-561.042 1512.56,-560.486 1514.52,-567.205"/>
</g>
<!-- reporter&#45;&gt;fulls -->
<g id="edge13" class="edge"><title>reporter&#45;&gt;fulls</title>
<path fill="none" stroke="black" d="M1245.33,-632.969C1273.73,-614.942 1318.7,-586.402 1350.01,-566.525"/>
<polygon fill="black" stroke="black" points="1351.89,-569.478 1358.46,-561.164 1348.14,-563.568 1351.89,-569.478"/>
</g>
<!-- reporter&#45;&gt;uniqurls -->
<g id="edge14" class="edge"><title>reporter&#45;&gt;uniqurls</title>
<path fill="none" stroke="black" d="M1218.5,-632.969C1218.5,-616.378 1218.5,-590.883 1218.5,-571.431"/>
<polygon fill="black" stroke="black" points="1222,-571.341 1218.5,-561.341 1215,-571.341 1222,-571.341"/>
</g>
<!-- aggregator&#45;&gt;site_aggregs -->
<g id="edge17" class="edge"><title>aggregator&#45;&gt;site_aggregs</title>
<path fill="none" stroke="black" d="M1671.11,-451.994C1703.73,-441.838 1745.34,-428.879 1779.62,-418.204"/>
<polygon fill="black" stroke="black" points="1781.04,-421.429 1789.54,-415.114 1778.96,-414.745 1781.04,-421.429"/>
</g>
<!-- aggregator&#45;&gt;lpair_aggregs -->
<g id="edge18" class="edge"><title>aggregator&#45;&gt;lpair_aggregs</title>
<path fill="none" stroke="black" d="M1625.7,-451.813C1630.18,-443.441 1635.66,-433.197 1640.64,-423.903"/>
<polygon fill="black" stroke="black" points="1643.75,-425.497 1645.39,-415.029 1637.58,-422.194 1643.75,-425.497"/>
</g>
<!-- aggregator&#45;&gt;lpair_confmat -->
<g id="edge19" class="edge"><title>aggregator&#45;&gt;lpair_confmat</title>
<path fill="none" stroke="black" d="M1555.14,-462.097C1467.84,-452.186 1302.82,-433.12 1162.5,-415 1162.4,-414.987 1162.29,-414.973 1162.19,-414.96"/>
<polygon fill="black" stroke="black" points="1162.88,-411.52 1152.51,-413.697 1161.97,-418.461 1162.88,-411.52"/>
</g>
<!-- filter&#45;&gt;syntheses_filtered -->
<g id="edge42" class="edge"><title>filter&#45;&gt;syntheses_filtered</title>
<path fill="none" stroke="black" d="M1406.68,-451.813C1407.7,-443.789 1408.93,-434.047 1410.07,-425.069"/>
<polygon fill="black" stroke="black" points="1413.56,-425.39 1411.34,-415.029 1406.61,-424.509 1413.56,-425.39"/>
</g>
<!-- filter&#45;&gt;fulls_filtered -->
<g id="edge43" class="edge"><title>filter&#45;&gt;fulls_filtered</title>
<path fill="none" stroke="black" d="M1365.22,-451.994C1342.46,-442.143 1313.62,-429.656 1289.4,-419.172"/>
<polygon fill="black" stroke="black" points="1290.6,-415.875 1280.03,-415.114 1287.82,-422.298 1290.6,-415.875"/>
</g>
<!-- pprinter&#45;&gt;fulls_pp -->
<g id="edge47" class="edge"><title>pprinter&#45;&gt;fulls_pp</title>
<path fill="none" stroke="black" d="M783.48,-462.838C696.134,-453.01 520.38,-433.051 371.5,-415 359.468,-413.541 346.833,-411.979 334.328,-410.413"/>
<polygon fill="black" stroke="black" points="334.699,-406.933 324.341,-409.16 333.827,-413.878 334.699,-406.933"/>
</g>
<!-- pprinter&#45;&gt;lpair_confmat_pp -->
<g id="edge48" class="edge"><title>pprinter&#45;&gt;lpair_confmat_pp</title>
<path fill="none" stroke="black" d="M783.382,-454.717C742.179,-444.041 685.37,-429.32 639.952,-417.552"/>
<polygon fill="black" stroke="black" points="640.708,-414.132 630.15,-415.011 638.952,-420.908 640.708,-414.132"/>
</g>
<!-- dbdumper&#45;&gt;syntheses_db -->
<g id="edge24" class="edge"><title>dbdumper&#45;&gt;syntheses_db</title>
<path fill="none" stroke="black" d="M1799.01,-305.994C1779.29,-296.273 1754.37,-283.987 1733.29,-273.59"/>
<polygon fill="black" stroke="black" points="1734.73,-270.397 1724.21,-269.114 1731.63,-276.675 1734.73,-270.397"/>
</g>
<!-- dbdumper&#45;&gt;fulls_db -->
<g id="edge25" class="edge"><title>dbdumper&#45;&gt;fulls_db</title>
<path fill="none" stroke="black" d="M1831.81,-305.813C1831.01,-297.789 1830.05,-288.047 1829.17,-279.069"/>
<polygon fill="black" stroke="black" points="1832.64,-278.637 1828.18,-269.029 1825.68,-279.324 1832.64,-278.637"/>
</g>
<!-- dbdumper&#45;&gt;site_db -->
<g id="edge26" class="edge"><title>dbdumper&#45;&gt;site_db</title>
<path fill="none" stroke="black" d="M1871.34,-305.994C1893.17,-296.186 1920.81,-283.766 1944.08,-273.311"/>
<polygon fill="black" stroke="black" points="1945.73,-276.405 1953.42,-269.114 1942.86,-270.02 1945.73,-276.405"/>
</g>
<!-- dbdumper&#45;&gt;lpair_db -->
<g id="edge27" class="edge"><title>dbdumper&#45;&gt;lpair_db</title>
<path fill="none" stroke="black" d="M1894.04,-312.062C1954.71,-301.102 2049.28,-284.017 2122.07,-270.866"/>
<polygon fill="black" stroke="black" points="2122.97,-274.26 2132.19,-269.038 2121.73,-267.371 2122.97,-274.26"/>
</g>
<!-- dbretriever&#45;&gt;syntheses_q -->
<g id="edge52" class="edge"><title>dbretriever&#45;&gt;syntheses_q</title>
<path fill="none" stroke="black" d="M1762.9,-92.1742C1735.38,-86.338 1703.02,-78.4966 1674.5,-69 1650.85,-61.124 1625.39,-50.096 1604.63,-40.4003"/>
<polygon fill="black" stroke="black" points="1605.98,-37.169 1595.45,-36.0554 1602.99,-43.4964 1605.98,-37.169"/>
<text text-anchor="middle" x="1723" y="-57.8" font-family="Times,serif" font-size="14.00">웃 (query, dump)</text>
</g>
<!-- dbretriever&#45;&gt;fulls_q -->
<g id="edge53" class="edge"><title>dbretriever&#45;&gt;fulls_q</title>
<path fill="none" stroke="black" d="M1808.08,-86.799C1794.64,-74.2409 1776.24,-57.0493 1761.32,-43.1202"/>
<polygon fill="black" stroke="black" points="1763.58,-40.4437 1753.89,-36.1754 1758.81,-45.5593 1763.58,-40.4437"/>
<text text-anchor="middle" x="1834" y="-57.8" font-family="Times,serif" font-size="14.00">웃 (query, dump)</text>
</g>
<!-- dbretriever&#45;&gt;site_q -->
<g id="edge57" class="edge"><title>dbretriever&#45;&gt;site_q</title>
<path fill="none" stroke="black" d="M1862.47,-86.8464C1870.92,-81.8193 1879.5,-75.8135 1886.5,-69 1893.52,-62.1674 1899.63,-53.4367 1904.53,-45.1891"/>
<polygon fill="black" stroke="black" points="1907.72,-46.6493 1909.53,-36.2094 1901.6,-43.2448 1907.72,-46.6493"/>
<text text-anchor="middle" x="1947" y="-57.8" font-family="Times,serif" font-size="14.00">웃 (query, dump)</text>
</g>
<!-- dbretriever&#45;&gt;lpair_q -->
<g id="edge58" class="edge"><title>dbretriever&#45;&gt;lpair_q</title>
<path fill="none" stroke="black" d="M1890.18,-92.9796C1923.05,-86.8237 1963.66,-78.4858 1999.5,-69 2031.33,-60.5764 2066.27,-49.2349 2094.61,-39.4831"/>
<polygon fill="black" stroke="black" points="2096.05,-42.6905 2104.35,-36.1075 2093.76,-36.0767 2096.05,-42.6905"/>
<text text-anchor="middle" x="2098" y="-57.8" font-family="Times,serif" font-size="14.00">웃 (query, dump)</text>
</g>
<!-- sampler&#45;&gt;fulls_sampled -->
<g id="edge31" class="edge"><title>sampler&#45;&gt;fulls_sampled</title>
<path fill="none" stroke="black" d="M1066.93,-455.31C1024.11,-444.566 963.937,-429.47 916.1,-417.468"/>
<polygon fill="black" stroke="black" points="916.949,-414.073 906.398,-415.034 915.246,-420.863 916.949,-414.073"/>
</g>
<!-- plotter&#45;&gt;lpair_histo -->
<g id="edge29" class="edge"><title>plotter&#45;&gt;lpair_histo</title>
<path fill="none" stroke="black" d="M1502.5,-305.813C1502.5,-297.789 1502.5,-288.047 1502.5,-279.069"/>
<polygon fill="black" stroke="black" points="1506,-279.029 1502.5,-269.029 1499,-279.029 1506,-279.029"/>
</g>
<!-- pgloader&#45;&gt;dbretriever -->
<g id="edge56" class="edge"><title>pgloader&#45;&gt;dbretriever</title>
<path fill="none" stroke="black" d="M1963.14,-164.795C1939.13,-154.464 1904.17,-139.422 1875.63,-127.139"/>
<polygon fill="black" stroke="black" points="1876.79,-123.828 1866.22,-123.09 1874.02,-130.258 1876.79,-123.828"/>
</g>
<!-- qcintegrator&#45;&gt;fulls_enriched -->
<g id="edge37" class="edge"><title>qcintegrator&#45;&gt;fulls_enriched</title>
<path fill="none" stroke="black" d="M137.475,-86.799C148.207,-74.4713 162.827,-57.6787 174.831,-43.8902"/>
<polygon fill="black" stroke="black" points="177.621,-46.0159 181.547,-36.1754 172.341,-41.4195 177.621,-46.0159"/>
</g>
<!-- tmxbuilder&#45;&gt;tmxs -->
<g id="edge39" class="edge"><title>tmxbuilder&#45;&gt;tmxs</title>
<path fill="none" stroke="black" d="M328.176,-123.109C339.527,-136.6 352.5,-156.503 352.5,-177 352.5,-361 352.5,-361 352.5,-361 352.5,-612.165 680.553,-772.943 810.962,-826.933"/>
<polygon fill="black" stroke="black" points="809.792,-830.236 820.373,-830.785 812.444,-823.758 809.792,-830.236"/>
</g>
</g>
</svg>
