<?xml version="1.0" encoding="UTF-8" standalone="no"?>
<!DOCTYPE svg PUBLIC "-//W3C//DTD SVG 1.1//EN"
 "http://www.w3.org/Graphics/SVG/1.1/DTD/svg11.dtd">
<!-- Generated by graphviz version 2.38.0 (20140413.2041)
 -->
<!-- Title: %3 Pages: 1 -->
<svg width="2196pt" height="899pt"
 viewBox="0.00 0.00 2196.00 899.30" xmlns="http://www.w3.org/2000/svg" xmlns:xlink="http://www.w3.org/1999/xlink">
<g id="graph0" class="graph" transform="scale(1 1) rotate(0) translate(4 895.296)">
<title>%3</title>
<polygon fill="white" stroke="none" points="-4,4 -4,-895.296 2192,-895.296 2192,4 -4,4"/>
<text text-anchor="middle" x="1094" y="-876.096" font-family="Times,serif" font-size="14.00">ELDA Crawled Data Management Toolkit</text>
<!-- human -->
<g id="node1" class="node"><title>human</title>
<ellipse fill="none" stroke="black" cx="251.5" cy="-848.148" rx="20.2975" ry="20.2975"/>
<text text-anchor="middle" x="251.5" y="-844.448" font-family="Times,serif" font-size="14.00">웃</text>
</g>
<!-- urls -->
<g id="node2" class="node"><title>urls</title>
<path fill="none" stroke="black" d="M448,-866.148C448,-866.148 377,-866.148 377,-866.148 371,-866.148 365,-860.148 365,-854.148 365,-854.148 365,-842.148 365,-842.148 365,-836.148 371,-830.148 377,-830.148 377,-830.148 448,-830.148 448,-830.148 454,-830.148 460,-836.148 460,-842.148 460,-842.148 460,-854.148 460,-854.148 460,-860.148 454,-866.148 448,-866.148"/>
<text text-anchor="middle" x="412.5" y="-844.448" font-family="Times,serif" font-size="14.00">{Input URLs}</text>
</g>
<!-- human&#45;&gt;urls -->
<g id="edge1" class="edge"><title>human&#45;&gt;urls</title>
<path fill="none" stroke="black" d="M271.891,-848.148C292.706,-848.148 325.978,-848.148 354.932,-848.148"/>
<polygon fill="black" stroke="black" points="354.965,-851.648 364.965,-848.148 354.965,-844.648 354.965,-851.648"/>
<text text-anchor="middle" x="318.324" y="-854.948" font-family="Times,serif" font-size="14.00">identification</text>
</g>
<!-- docdir -->
<g id="node3" class="node"><title>docdir</title>
<path fill="none" stroke="black" d="M487,-777C487,-777 386,-777 386,-777 380,-777 374,-771 374,-765 374,-765 374,-753 374,-753 374,-747 380,-741 386,-741 386,-741 487,-741 487,-741 493,-741 499,-747 499,-753 499,-753 499,-765 499,-765 499,-771 493,-777 487,-777"/>
<text text-anchor="middle" x="436.5" y="-755.3" font-family="Times,serif" font-size="14.00">{Local documents}</text>
</g>
<!-- human&#45;&gt;docdir -->
<g id="edge6" class="edge"><title>human&#45;&gt;docdir</title>
<path fill="none" stroke="black" d="M270.792,-842.062C292.845,-835.898 329.736,-824.51 359.5,-810 375.131,-802.38 391.425,-792.173 404.976,-782.969"/>
<polygon fill="black" stroke="black" points="407.221,-785.672 413.451,-777.102 403.237,-779.916 407.221,-785.672"/>
</g>
<!-- fulls_sampled_annotated -->
<g id="node28" class="node"><title>fulls_sampled_annotated</title>
<path fill="none" stroke="black" d="M157,-723C157,-723 12,-723 12,-723 6,-723 1.42109e-14,-717 1.42109e-14,-711 1.42109e-14,-711 1.42109e-14,-699 1.42109e-14,-699 1.42109e-14,-693 6,-687 12,-687 12,-687 157,-687 157,-687 163,-687 169,-693 169,-699 169,-699 169,-711 169,-711 169,-717 163,-723 157,-723"/>
<text text-anchor="middle" x="84.5" y="-701.3" font-family="Times,serif" font-size="14.00">{Manually&#45;annotated TUs}</text>
</g>
<!-- human&#45;&gt;fulls_sampled_annotated -->
<g id="edge36" class="edge"><title>human&#45;&gt;fulls_sampled_annotated</title>
<path fill="none" stroke="black" d="M231.431,-845.851C190.419,-842.737 99.2798,-833.298 80.5,-810 63.2912,-788.651 67.8909,-756.066 74.4903,-733.069"/>
<polygon fill="black" stroke="black" points="77.9165,-733.843 77.592,-723.253 71.2418,-731.734 77.9165,-733.843"/>
<text text-anchor="middle" x="130.5" y="-798.8" font-family="Times,serif" font-size="14.00">manual validation</text>
</g>
<!-- psi_info -->
<g id="node30" class="node"><title>psi_info</title>
<path fill="none" stroke="black" d="M270,-615C270,-615 115,-615 115,-615 109,-615 103,-609 103,-603 103,-603 103,-591 103,-591 103,-585 109,-579 115,-579 115,-579 270,-579 270,-579 276,-579 282,-585 282,-591 282,-591 282,-603 282,-603 282,-609 276,-615 270,-615"/>
<text text-anchor="middle" x="192.5" y="-593.3" font-family="Times,serif" font-size="14.00">{PSI validation information}</text>
</g>
<!-- human&#45;&gt;psi_info -->
<g id="edge37" class="edge"><title>human&#45;&gt;psi_info</title>
<path fill="none" stroke="black" d="M239.353,-832.029C229.201,-818.478 215.32,-797.613 208.5,-777 191.447,-725.459 190.184,-661.288 191.124,-625.467"/>
<polygon fill="black" stroke="black" points="194.628,-625.419 191.472,-615.305 187.632,-625.18 194.628,-625.419"/>
<text text-anchor="middle" x="270" y="-755.3" font-family="Times,serif" font-size="14.00">manual PSI validation</text>
</g>
<!-- launcher -->
<g id="node31" class="node"><title>launcher</title>
<polygon fill="none" stroke="black" points="609,-866.148 496,-866.148 496,-830.148 609,-830.148 609,-866.148"/>
<text text-anchor="middle" x="552.5" y="-844.448" font-family="Times,serif" font-size="14.00">crawler_launcher</text>
</g>
<!-- urls&#45;&gt;launcher -->
<g id="edge2" class="edge"><title>urls&#45;&gt;launcher</title>
<path fill="none" stroke="black" d="M460.078,-848.148C468.641,-848.148 477.204,-848.148 485.767,-848.148"/>
<polygon fill="black" stroke="black" points="485.819,-851.648 495.819,-848.148 485.819,-844.648 485.819,-851.648"/>
</g>
<!-- localserver -->
<g id="node45" class="node"><title>localserver</title>
<polygon fill="none" stroke="black" points="528,-669 403,-669 403,-633 528,-633 528,-669"/>
<text text-anchor="middle" x="465.5" y="-647.3" font-family="Times,serif" font-size="14.00">crawler_localserver</text>
</g>
<!-- docdir&#45;&gt;localserver -->
<g id="edge7" class="edge"><title>docdir&#45;&gt;localserver</title>
<path fill="none" stroke="black" d="M441.159,-740.969C445.719,-724.301 452.738,-698.646 458.069,-679.161"/>
<polygon fill="black" stroke="black" points="461.493,-679.91 460.756,-669.341 454.741,-678.063 461.493,-679.91"/>
</g>
<!-- tmxs -->
<g id="node4" class="node"><title>tmxs</title>
<path fill="none" stroke="black" d="M718.5,-866.148C718.5,-866.148 656.5,-866.148 656.5,-866.148 650.5,-866.148 644.5,-860.148 644.5,-854.148 644.5,-854.148 644.5,-842.148 644.5,-842.148 644.5,-836.148 650.5,-830.148 656.5,-830.148 656.5,-830.148 718.5,-830.148 718.5,-830.148 724.5,-830.148 730.5,-836.148 730.5,-842.148 730.5,-842.148 730.5,-854.148 730.5,-854.148 730.5,-860.148 724.5,-866.148 718.5,-866.148"/>
<text text-anchor="middle" x="687.5" y="-844.448" font-family="Times,serif" font-size="14.00">{TMX files}</text>
</g>
<!-- backuper -->
<g id="node32" class="node"><title>backuper</title>
<polygon fill="none" stroke="black" points="881,-866.148 766,-866.148 766,-830.148 881,-830.148 881,-866.148"/>
<text text-anchor="middle" x="823.5" y="-844.448" font-family="Times,serif" font-size="14.00">crawler_backuper</text>
</g>
<!-- tmxs&#45;&gt;backuper -->
<g id="edge4" class="edge"><title>tmxs&#45;&gt;backuper</title>
<path fill="none" stroke="black" d="M730.531,-848.148C738.879,-848.148 747.227,-848.148 755.575,-848.148"/>
<polygon fill="black" stroke="black" points="755.758,-851.648 765.758,-848.148 755.758,-844.648 755.758,-851.648"/>
</g>
<!-- metacleaner -->
<g id="node33" class="node"><title>metacleaner</title>
<polygon fill="none" stroke="black" points="770,-777 637,-777 637,-741 770,-741 770,-777"/>
<text text-anchor="middle" x="703.5" y="-755.3" font-family="Times,serif" font-size="14.00">crawler_metacleaner</text>
</g>
<!-- tmxs&#45;&gt;metacleaner -->
<g id="edge10" class="edge"><title>tmxs&#45;&gt;metacleaner</title>
<path fill="none" stroke="black" d="M690.661,-829.931C692.896,-817.756 695.939,-801.184 698.501,-787.228"/>
<polygon fill="black" stroke="black" points="701.982,-787.65 700.345,-777.182 695.097,-786.385 701.982,-787.65"/>
</g>
<!-- reporter -->
<g id="node34" class="node"><title>reporter</title>
<polygon fill="none" stroke="black" points="1006.5,-669 896.5,-669 896.5,-633 1006.5,-633 1006.5,-669"/>
<text text-anchor="middle" x="951.5" y="-647.3" font-family="Times,serif" font-size="14.00">crawler_reporter</text>
</g>
<!-- tmxs&#45;&gt;reporter -->
<g id="edge9" class="edge"><title>tmxs&#45;&gt;reporter</title>
<path fill="none" stroke="black" d="M710.928,-829.83C758.602,-794.589 866.902,-714.535 920.403,-674.987"/>
<polygon fill="black" stroke="black" points="922.54,-677.759 928.501,-669.001 918.379,-672.13 922.54,-677.759"/>
</g>
<!-- tmxs_dedup -->
<g id="node5" class="node"><title>tmxs_dedup</title>
<path fill="none" stroke="black" d="M1149,-777C1149,-777 1032,-777 1032,-777 1026,-777 1020,-771 1020,-765 1020,-765 1020,-753 1020,-753 1020,-747 1026,-741 1032,-741 1032,-741 1149,-741 1149,-741 1155,-741 1161,-747 1161,-753 1161,-753 1161,-765 1161,-765 1161,-771 1155,-777 1149,-777"/>
<text text-anchor="middle" x="1090.5" y="-755.3" font-family="Times,serif" font-size="14.00">{Deduplicated TMXs}</text>
</g>
<!-- tmxs_dedup&#45;&gt;reporter -->
<g id="edge12" class="edge"><title>tmxs_dedup&#45;&gt;reporter</title>
<path fill="none" stroke="black" d="M1068.17,-740.969C1044.9,-723.226 1008.28,-695.299 982.277,-675.471"/>
<polygon fill="black" stroke="black" points="984.313,-672.621 974.239,-669.341 980.068,-678.188 984.313,-672.621"/>
</g>
<!-- tmxs_deback -->
<g id="node6" class="node"><title>tmxs_deback</title>
<path fill="none" stroke="black" d="M990,-777C990,-777 869,-777 869,-777 863,-777 857,-771 857,-765 857,-765 857,-753 857,-753 857,-747 863,-741 869,-741 869,-741 990,-741 990,-741 996,-741 1002,-747 1002,-753 1002,-753 1002,-765 1002,-765 1002,-771 996,-777 990,-777"/>
<text text-anchor="middle" x="929.5" y="-755.3" font-family="Times,serif" font-size="14.00">{De&#45;backed&#45;up TMXs}</text>
</g>
<!-- tmxs_deback&#45;&gt;reporter -->
<g id="edge14" class="edge"><title>tmxs_deback&#45;&gt;reporter</title>
<path fill="none" stroke="black" d="M933.035,-740.969C936.494,-724.301 941.819,-698.646 945.863,-679.161"/>
<polygon fill="black" stroke="black" points="949.296,-679.843 947.901,-669.341 942.442,-678.421 949.296,-679.843"/>
</g>
<!-- zips -->
<g id="node7" class="node"><title>zips</title>
<path fill="none" stroke="black" d="M1006,-866.148C1006,-866.148 929,-866.148 929,-866.148 923,-866.148 917,-860.148 917,-854.148 917,-854.148 917,-842.148 917,-842.148 917,-836.148 923,-830.148 929,-830.148 929,-830.148 1006,-830.148 1006,-830.148 1012,-830.148 1018,-836.148 1018,-842.148 1018,-842.148 1018,-854.148 1018,-854.148 1018,-860.148 1012,-866.148 1006,-866.148"/>
<text text-anchor="middle" x="967.5" y="-844.448" font-family="Times,serif" font-size="14.00">{ZIP archives}</text>
</g>
<!-- zips&#45;&gt;tmxs_deback -->
<g id="edge13" class="edge"><title>zips&#45;&gt;tmxs_deback</title>
<path fill="none" stroke="black" d="M959.992,-829.931C954.58,-817.517 947.174,-800.532 941.016,-786.41"/>
<polygon fill="black" stroke="black" points="944.197,-784.949 936.992,-777.182 937.781,-787.747 944.197,-784.949"/>
<text text-anchor="middle" x="980" y="-798.8" font-family="Times,serif" font-size="14.00">웃 (unzip)</text>
</g>
<!-- syntheses -->
<g id="node8" class="node"><title>syntheses</title>
<path fill="none" stroke="black" d="M1658.5,-561C1658.5,-561 1556.5,-561 1556.5,-561 1550.5,-561 1544.5,-555 1544.5,-549 1544.5,-549 1544.5,-537 1544.5,-537 1544.5,-531 1550.5,-525 1556.5,-525 1556.5,-525 1658.5,-525 1658.5,-525 1664.5,-525 1670.5,-531 1670.5,-537 1670.5,-537 1670.5,-549 1670.5,-549 1670.5,-555 1664.5,-561 1658.5,-561"/>
<text text-anchor="middle" x="1607.5" y="-539.3" font-family="Times,serif" font-size="14.00">{Synthesis reports}</text>
</g>
<!-- aggregator -->
<g id="node35" class="node"><title>aggregator</title>
<polygon fill="none" stroke="black" points="1527.5,-488 1405.5,-488 1405.5,-452 1527.5,-452 1527.5,-488"/>
<text text-anchor="middle" x="1466.5" y="-466.3" font-family="Times,serif" font-size="14.00">crawler_aggregator</text>
</g>
<!-- syntheses&#45;&gt;aggregator -->
<g id="edge18" class="edge"><title>syntheses&#45;&gt;aggregator</title>
<path fill="none" stroke="black" d="M1573.73,-524.994C1554.51,-515.317 1530.24,-503.097 1509.65,-492.73"/>
<polygon fill="black" stroke="black" points="1510.99,-489.485 1500.49,-488.114 1507.84,-495.737 1510.99,-489.485"/>
</g>
<!-- filter -->
<g id="node36" class="node"><title>filter</title>
<polygon fill="none" stroke="black" points="1839.5,-488 1747.5,-488 1747.5,-452 1839.5,-452 1839.5,-488"/>
<text text-anchor="middle" x="1793.5" y="-466.3" font-family="Times,serif" font-size="14.00">crawler_filter</text>
</g>
<!-- syntheses&#45;&gt;filter -->
<g id="edge43" class="edge"><title>syntheses&#45;&gt;filter</title>
<path fill="none" stroke="black" d="M1652.05,-524.994C1678.2,-515.012 1711.44,-502.324 1739.13,-491.755"/>
<polygon fill="black" stroke="black" points="1740.57,-494.95 1748.67,-488.114 1738.08,-488.41 1740.57,-494.95"/>
</g>
<!-- dbdumper -->
<g id="node38" class="node"><title>dbdumper</title>
<polygon fill="none" stroke="black" points="1717,-342 1596,-342 1596,-306 1717,-306 1717,-342"/>
<text text-anchor="middle" x="1656.5" y="-320.3" font-family="Times,serif" font-size="14.00">crawler_dbdumper</text>
</g>
<!-- syntheses&#45;&gt;dbdumper -->
<g id="edge23" class="edge"><title>syntheses&#45;&gt;dbdumper</title>
<path fill="none" stroke="black" d="M1670.57,-534.862C1788.59,-520.042 2035.35,-481.644 2084.5,-415 2094,-402.123 2095.08,-391.001 2084.5,-379 2061.3,-352.689 1842.84,-335.968 1727.33,-328.891"/>
<polygon fill="black" stroke="black" points="1727.35,-325.386 1717.16,-328.277 1726.93,-332.374 1727.35,-325.386"/>
</g>
<!-- syntheses_db -->
<g id="node9" class="node"><title>syntheses_db</title>
<path fill="none" stroke="black" d="M1531.5,-269C1531.5,-269 1421.5,-269 1421.5,-269 1415.5,-269 1409.5,-263 1409.5,-257 1409.5,-257 1409.5,-245 1409.5,-245 1409.5,-239 1415.5,-233 1421.5,-233 1421.5,-233 1531.5,-233 1531.5,-233 1537.5,-233 1543.5,-239 1543.5,-245 1543.5,-245 1543.5,-257 1543.5,-257 1543.5,-263 1537.5,-269 1531.5,-269"/>
<text text-anchor="middle" x="1476.5" y="-247.3" font-family="Times,serif" font-size="14.00">{Synthesis database}</text>
</g>
<!-- dbretriever -->
<g id="node39" class="node"><title>dbretriever</title>
<polygon fill="none" stroke="black" points="1831,-123 1704,-123 1704,-87 1831,-87 1831,-123"/>
<text text-anchor="middle" x="1767.5" y="-101.3" font-family="Times,serif" font-size="14.00">crawler_dbretriever</text>
</g>
<!-- syntheses_db&#45;&gt;dbretriever -->
<g id="edge53" class="edge"><title>syntheses_db&#45;&gt;dbretriever</title>
<path fill="none" stroke="black" d="M1511.02,-232.916C1564.08,-206.663 1665.59,-156.429 1723.73,-127.659"/>
<polygon fill="black" stroke="black" points="1725.61,-130.634 1733.02,-123.062 1722.51,-124.36 1725.61,-130.634"/>
</g>
<!-- syntheses_q -->
<g id="node10" class="node"><title>syntheses_q</title>
<path fill="none" stroke="black" d="M1754.5,-36C1754.5,-36 1606.5,-36 1606.5,-36 1600.5,-36 1594.5,-30 1594.5,-24 1594.5,-24 1594.5,-12 1594.5,-12 1594.5,-6 1600.5,-0 1606.5,-0 1606.5,-0 1754.5,-0 1754.5,-0 1760.5,-0 1766.5,-6 1766.5,-12 1766.5,-12 1766.5,-24 1766.5,-24 1766.5,-30 1760.5,-36 1754.5,-36"/>
<text text-anchor="middle" x="1680.5" y="-14.3" font-family="Times,serif" font-size="14.00">{Queried synthesis reports}</text>
</g>
<!-- syntheses_filtered -->
<g id="node11" class="node"><title>syntheses_filtered</title>
<path fill="none" stroke="black" d="M2063,-415C2063,-415 1916,-415 1916,-415 1910,-415 1904,-409 1904,-403 1904,-403 1904,-391 1904,-391 1904,-385 1910,-379 1916,-379 1916,-379 2063,-379 2063,-379 2069,-379 2075,-385 2075,-391 2075,-391 2075,-403 2075,-403 2075,-409 2069,-415 2063,-415"/>
<text text-anchor="middle" x="1989.5" y="-393.3" font-family="Times,serif" font-size="14.00">{Filtered synthesis reports}</text>
</g>
<!-- fulls -->
<g id="node12" class="node"><title>fulls</title>
<path fill="none" stroke="black" d="M1133,-561C1133,-561 1062,-561 1062,-561 1056,-561 1050,-555 1050,-549 1050,-549 1050,-537 1050,-537 1050,-531 1056,-525 1062,-525 1062,-525 1133,-525 1133,-525 1139,-525 1145,-531 1145,-537 1145,-537 1145,-549 1145,-549 1145,-555 1139,-561 1133,-561"/>
<text text-anchor="middle" x="1097.5" y="-539.3" font-family="Times,serif" font-size="14.00">{Full reports}</text>
</g>
<!-- fulls&#45;&gt;aggregator -->
<g id="edge19" class="edge"><title>fulls&#45;&gt;aggregator</title>
<path fill="none" stroke="black" d="M1145.36,-532.791C1208.87,-520.571 1321.52,-498.895 1395.1,-484.738"/>
<polygon fill="black" stroke="black" points="1396.06,-488.118 1405.22,-482.792 1394.73,-481.244 1396.06,-488.118"/>
</g>
<!-- fulls&#45;&gt;filter -->
<g id="edge44" class="edge"><title>fulls&#45;&gt;filter</title>
<path fill="none" stroke="black" d="M1145.06,-537.148C1269.35,-524.469 1603.41,-490.392 1737.08,-476.756"/>
<polygon fill="black" stroke="black" points="1737.52,-480.229 1747.11,-475.732 1736.8,-473.265 1737.52,-480.229"/>
</g>
<!-- pprinter -->
<g id="node37" class="node"><title>pprinter</title>
<polygon fill="none" stroke="black" points="940.5,-488 830.5,-488 830.5,-452 940.5,-452 940.5,-488"/>
<text text-anchor="middle" x="885.5" y="-466.3" font-family="Times,serif" font-size="14.00">crawler_pprinter</text>
</g>
<!-- fulls&#45;&gt;pprinter -->
<g id="edge47" class="edge"><title>fulls&#45;&gt;pprinter</title>
<path fill="none" stroke="black" d="M1049.92,-526.066C1019.26,-515.796 979.102,-502.348 946.152,-491.313"/>
<polygon fill="black" stroke="black" points="947.215,-487.978 936.621,-488.121 944.992,-494.615 947.215,-487.978"/>
</g>
<!-- fulls&#45;&gt;dbdumper -->
<g id="edge24" class="edge"><title>fulls&#45;&gt;dbdumper</title>
<path fill="none" stroke="black" d="M1093.37,-524.769C1086.5,-491.383 1077.1,-417.761 1116.5,-379 1133,-362.764 1442.58,-339.621 1585.4,-329.753"/>
<polygon fill="black" stroke="black" points="1586.06,-333.216 1595.8,-329.037 1585.58,-326.232 1586.06,-333.216"/>
</g>
<!-- sampler -->
<g id="node40" class="node"><title>sampler</title>
<polygon fill="none" stroke="black" points="1069,-488 960,-488 960,-452 1069,-452 1069,-488"/>
<text text-anchor="middle" x="1014.5" y="-466.3" font-family="Times,serif" font-size="14.00">crawler_sampler</text>
</g>
<!-- fulls&#45;&gt;sampler -->
<g id="edge33" class="edge"><title>fulls&#45;&gt;sampler</title>
<path fill="none" stroke="black" d="M1077.41,-524.813C1066.81,-515.743 1053.63,-504.477 1042.09,-494.6"/>
<polygon fill="black" stroke="black" points="1044.28,-491.87 1034.41,-488.029 1039.73,-497.189 1044.28,-491.87"/>
</g>
<!-- fulls_db -->
<g id="node13" class="node"><title>fulls_db</title>
<path fill="none" stroke="black" d="M2122,-269C2122,-269 2043,-269 2043,-269 2037,-269 2031,-263 2031,-257 2031,-257 2031,-245 2031,-245 2031,-239 2037,-233 2043,-233 2043,-233 2122,-233 2122,-233 2128,-233 2134,-239 2134,-245 2134,-245 2134,-257 2134,-257 2134,-263 2128,-269 2122,-269"/>
<text text-anchor="middle" x="2082.5" y="-247.3" font-family="Times,serif" font-size="14.00">{Full database}</text>
</g>
<!-- fulls_db&#45;&gt;dbretriever -->
<g id="edge54" class="edge"><title>fulls_db&#45;&gt;dbretriever</title>
<path fill="none" stroke="black" d="M2045.13,-232.916C1987.46,-206.555 1876.91,-156.014 1814.1,-127.305"/>
<polygon fill="black" stroke="black" points="1815.37,-124.036 1804.82,-123.062 1812.46,-130.403 1815.37,-124.036"/>
</g>
<!-- fulls_filtered -->
<g id="node14" class="node"><title>fulls_filtered</title>
<path fill="none" stroke="black" d="M1874,-415C1874,-415 1759,-415 1759,-415 1753,-415 1747,-409 1747,-403 1747,-403 1747,-391 1747,-391 1747,-385 1753,-379 1759,-379 1759,-379 1874,-379 1874,-379 1880,-379 1886,-385 1886,-391 1886,-391 1886,-403 1886,-403 1886,-409 1880,-415 1874,-415"/>
<text text-anchor="middle" x="1816.5" y="-393.3" font-family="Times,serif" font-size="14.00">{Filtered full reports}</text>
</g>
<!-- fulls_sampled -->
<g id="node15" class="node"><title>fulls_sampled</title>
<path fill="none" stroke="black" d="M671,-415C671,-415 552,-415 552,-415 546,-415 540,-409 540,-403 540,-403 540,-391 540,-391 540,-385 546,-379 552,-379 552,-379 671,-379 671,-379 677,-379 683,-385 683,-391 683,-391 683,-403 683,-403 683,-409 677,-415 671,-415"/>
<text text-anchor="middle" x="611.5" y="-393.3" font-family="Times,serif" font-size="14.00">{Sampled full reports}</text>
</g>
<!-- fulls_sampled&#45;&gt;human -->
<g id="edge35" class="edge"><title>fulls_sampled&#45;&gt;human</title>
<path fill="none" stroke="black" d="M592.524,-415.012C579.853,-428.304 565.5,-447.997 565.5,-469 565.5,-706 565.5,-706 565.5,-706 565.5,-746.746 541.647,-754.769 507.5,-777 469.702,-801.608 340.032,-829.597 281.087,-841.409"/>
<polygon fill="black" stroke="black" points="280.397,-837.978 271.269,-843.358 281.76,-844.844 280.397,-837.978"/>
</g>
<!-- fulls_sampled&#45;&gt;pprinter -->
<g id="edge48" class="edge"><title>fulls_sampled&#45;&gt;pprinter</title>
<path fill="none" stroke="black" d="M677.15,-415.011C720.567,-426.262 777.246,-440.949 820.525,-452.163"/>
<polygon fill="black" stroke="black" points="819.823,-455.597 830.382,-454.717 821.579,-448.821 819.823,-455.597"/>
</g>
<!-- fulls_q -->
<g id="node16" class="node"><title>fulls_q</title>
<path fill="none" stroke="black" d="M1912.5,-36C1912.5,-36 1796.5,-36 1796.5,-36 1790.5,-36 1784.5,-30 1784.5,-24 1784.5,-24 1784.5,-12 1784.5,-12 1784.5,-6 1790.5,-0 1796.5,-0 1796.5,-0 1912.5,-0 1912.5,-0 1918.5,-0 1924.5,-6 1924.5,-12 1924.5,-12 1924.5,-24 1924.5,-24 1924.5,-30 1918.5,-36 1912.5,-36"/>
<text text-anchor="middle" x="1854.5" y="-14.3" font-family="Times,serif" font-size="14.00">{Queried full reports}</text>
</g>
<!-- fulls_pp -->
<g id="node17" class="node"><title>fulls_pp</title>
<path fill="none" stroke="black" d="M510,-415C510,-415 361,-415 361,-415 355,-415 349,-409 349,-403 349,-403 349,-391 349,-391 349,-385 355,-379 361,-379 361,-379 510,-379 510,-379 516,-379 522,-385 522,-391 522,-391 522,-403 522,-403 522,-409 516,-415 510,-415"/>
<text text-anchor="middle" x="435.5" y="-393.3" font-family="Times,serif" font-size="14.00">{Pretty&#45;printed full reports}</text>
</g>
<!-- fulls_pp&#45;&gt;human -->
<g id="edge52" class="edge"><title>fulls_pp&#45;&gt;human</title>
<path fill="none" stroke="black" d="M389.182,-415.068C367.13,-426.472 345.5,-444.023 345.5,-469 345.5,-760 345.5,-760 345.5,-760 345.5,-796.43 307.064,-821.904 279.347,-835.538"/>
<polygon fill="black" stroke="black" points="277.654,-832.466 270.071,-839.865 280.613,-838.809 277.654,-832.466"/>
<text text-anchor="middle" x="386.5" y="-593.3" font-family="Times,serif" font-size="14.00">quality control</text>
</g>
<!-- uniqurls -->
<g id="node18" class="node"><title>uniqurls</title>
<path fill="none" stroke="black" d="M1020,-561C1020,-561 859,-561 859,-561 853,-561 847,-555 847,-549 847,-549 847,-537 847,-537 847,-531 853,-525 859,-525 859,-525 1020,-525 1020,-525 1026,-525 1032,-531 1032,-537 1032,-537 1032,-549 1032,-549 1032,-555 1026,-561 1020,-561"/>
<text text-anchor="middle" x="939.5" y="-539.3" font-family="Times,serif" font-size="14.00">{Unique TU&#45;providing URLs}</text>
</g>
<!-- site_aggregs -->
<g id="node19" class="node"><title>site_aggregs</title>
<path fill="none" stroke="black" d="M1717,-415C1717,-415 1596,-415 1596,-415 1590,-415 1584,-409 1584,-403 1584,-403 1584,-391 1584,-391 1584,-385 1590,-379 1596,-379 1596,-379 1717,-379 1717,-379 1723,-379 1729,-385 1729,-391 1729,-391 1729,-403 1729,-403 1729,-409 1723,-415 1717,-415"/>
<text text-anchor="middle" x="1656.5" y="-393.3" font-family="Times,serif" font-size="14.00">{Per&#45;site aggregations}</text>
</g>
<!-- site_aggregs&#45;&gt;dbdumper -->
<g id="edge25" class="edge"><title>site_aggregs&#45;&gt;dbdumper</title>
<path fill="none" stroke="black" d="M1656.5,-378.813C1656.5,-370.789 1656.5,-361.047 1656.5,-352.069"/>
<polygon fill="black" stroke="black" points="1660,-352.029 1656.5,-342.029 1653,-352.029 1660,-352.029"/>
</g>
<!-- site_db -->
<g id="node20" class="node"><title>site_db</title>
<path fill="none" stroke="black" d="M1739.5,-269C1739.5,-269 1573.5,-269 1573.5,-269 1567.5,-269 1561.5,-263 1561.5,-257 1561.5,-257 1561.5,-245 1561.5,-245 1561.5,-239 1567.5,-233 1573.5,-233 1573.5,-233 1739.5,-233 1739.5,-233 1745.5,-233 1751.5,-239 1751.5,-245 1751.5,-245 1751.5,-257 1751.5,-257 1751.5,-263 1745.5,-269 1739.5,-269"/>
<text text-anchor="middle" x="1656.5" y="-247.3" font-family="Times,serif" font-size="14.00">{Per&#45;site aggregation database}</text>
</g>
<!-- pgloader -->
<g id="node42" class="node"><title>pgloader</title>
<ellipse fill="grey" stroke="black" cx="1767.5" cy="-178" rx="41.6928" ry="18"/>
<text text-anchor="middle" x="1767.5" y="-174.3" font-family="Times,serif" font-size="14.00">pgloader</text>
</g>
<!-- site_db&#45;&gt;pgloader -->
<g id="edge57" class="edge"><title>site_db&#45;&gt;pgloader</title>
<path fill="none" stroke="black" d="M1683.09,-232.994C1699.11,-222.748 1719.58,-209.65 1736.36,-198.921"/>
<polygon fill="black" stroke="black" points="1738.7,-201.574 1745.24,-193.237 1734.93,-195.677 1738.7,-201.574"/>
</g>
<!-- site_q -->
<g id="node21" class="node"><title>site_q</title>
<path fill="none" stroke="black" d="M1564,-36C1564,-36 1401,-36 1401,-36 1395,-36 1389,-30 1389,-24 1389,-24 1389,-12 1389,-12 1389,-6 1395,-0 1401,-0 1401,-0 1564,-0 1564,-0 1570,-0 1576,-6 1576,-12 1576,-12 1576,-24 1576,-24 1576,-30 1570,-36 1564,-36"/>
<text text-anchor="middle" x="1482.5" y="-14.3" font-family="Times,serif" font-size="14.00">{Queried per&#45;site aggregation}</text>
</g>
<!-- lpair_aggregs -->
<g id="node22" class="node"><title>lpair_aggregs</title>
<path fill="none" stroke="black" d="M1553.5,-415C1553.5,-415 1379.5,-415 1379.5,-415 1373.5,-415 1367.5,-409 1367.5,-403 1367.5,-403 1367.5,-391 1367.5,-391 1367.5,-385 1373.5,-379 1379.5,-379 1379.5,-379 1553.5,-379 1553.5,-379 1559.5,-379 1565.5,-385 1565.5,-391 1565.5,-391 1565.5,-403 1565.5,-403 1565.5,-409 1559.5,-415 1553.5,-415"/>
<text text-anchor="middle" x="1466.5" y="-393.3" font-family="Times,serif" font-size="14.00">{Per&#45;language pair aggregations}</text>
</g>
<!-- lpair_aggregs&#45;&gt;dbdumper -->
<g id="edge26" class="edge"><title>lpair_aggregs&#45;&gt;dbdumper</title>
<path fill="none" stroke="black" d="M1512.01,-378.994C1538.84,-368.968 1572.97,-356.213 1601.33,-345.617"/>
<polygon fill="black" stroke="black" points="1602.56,-348.893 1610.7,-342.114 1600.11,-342.335 1602.56,-348.893"/>
</g>
<!-- plotter -->
<g id="node41" class="node"><title>plotter</title>
<polygon fill="none" stroke="black" points="1385.5,-342 1283.5,-342 1283.5,-306 1385.5,-306 1385.5,-342"/>
<text text-anchor="middle" x="1334.5" y="-320.3" font-family="Times,serif" font-size="14.00">crawler_plotter</text>
</g>
<!-- lpair_aggregs&#45;&gt;plotter -->
<g id="edge31" class="edge"><title>lpair_aggregs&#45;&gt;plotter</title>
<path fill="none" stroke="black" d="M1434.88,-378.994C1416.97,-369.361 1394.38,-357.207 1375.16,-346.87"/>
<polygon fill="black" stroke="black" points="1376.78,-343.768 1366.32,-342.114 1373.47,-349.933 1376.78,-343.768"/>
</g>
<!-- lpair_q -->
<g id="node23" class="node"><title>lpair_q</title>
<path fill="none" stroke="black" d="M2176,-36C2176,-36 1955,-36 1955,-36 1949,-36 1943,-30 1943,-24 1943,-24 1943,-12 1943,-12 1943,-6 1949,-0 1955,-0 1955,-0 2176,-0 2176,-0 2182,-0 2188,-6 2188,-12 2188,-12 2188,-24 2188,-24 2188,-30 2182,-36 2176,-36"/>
<text text-anchor="middle" x="2065.5" y="-14.3" font-family="Times,serif" font-size="14.00">{Queried per&#45;language pair aggregations}</text>
</g>
<!-- lpair_confmat -->
<g id="node24" class="node"><title>lpair_confmat</title>
<path fill="none" stroke="black" d="M1337.5,-415C1337.5,-415 1137.5,-415 1137.5,-415 1131.5,-415 1125.5,-409 1125.5,-403 1125.5,-403 1125.5,-391 1125.5,-391 1125.5,-385 1131.5,-379 1137.5,-379 1137.5,-379 1337.5,-379 1337.5,-379 1343.5,-379 1349.5,-385 1349.5,-391 1349.5,-391 1349.5,-403 1349.5,-403 1349.5,-409 1343.5,-415 1337.5,-415"/>
<text text-anchor="middle" x="1237.5" y="-393.3" font-family="Times,serif" font-size="14.00">{Per&#45;language pair frequency matrix}</text>
</g>
<!-- lpair_confmat&#45;&gt;pprinter -->
<g id="edge49" class="edge"><title>lpair_confmat&#45;&gt;pprinter</title>
<path fill="none" stroke="black" d="M1138.56,-415.033C1083.34,-424.954 1013.4,-438.201 951.5,-452 951.164,-452.075 950.828,-452.15 950.49,-452.226"/>
<polygon fill="black" stroke="black" points="949.484,-448.866 940.534,-454.537 951.067,-455.685 949.484,-448.866"/>
</g>
<!-- lpair_confmat_pp -->
<g id="node25" class="node"><title>lpair_confmat_pp</title>
<path fill="none" stroke="black" d="M1057.5,-415C1057.5,-415 713.5,-415 713.5,-415 707.5,-415 701.5,-409 701.5,-403 701.5,-403 701.5,-391 701.5,-391 701.5,-385 707.5,-379 713.5,-379 713.5,-379 1057.5,-379 1057.5,-379 1063.5,-379 1069.5,-385 1069.5,-391 1069.5,-391 1069.5,-403 1069.5,-403 1069.5,-409 1063.5,-415 1057.5,-415"/>
<text text-anchor="middle" x="885.5" y="-393.3" font-family="Times,serif" font-size="14.00">{Pretty&#45;printed (pruned) per&#45;language pair frequency matrices}</text>
</g>
<!-- lpair_db -->
<g id="node26" class="node"><title>lpair_db</title>
<path fill="none" stroke="black" d="M2001,-269C2001,-269 1782,-269 1782,-269 1776,-269 1770,-263 1770,-257 1770,-257 1770,-245 1770,-245 1770,-239 1776,-233 1782,-233 1782,-233 2001,-233 2001,-233 2007,-233 2013,-239 2013,-245 2013,-245 2013,-257 2013,-257 2013,-263 2007,-269 2001,-269"/>
<text text-anchor="middle" x="1891.5" y="-247.3" font-family="Times,serif" font-size="14.00">{Per&#45;language pair aggregation database}</text>
</g>
<!-- lpair_db&#45;&gt;pgloader -->
<g id="edge58" class="edge"><title>lpair_db&#45;&gt;pgloader</title>
<path fill="none" stroke="black" d="M1861.8,-232.994C1843.33,-222.417 1819.55,-208.802 1800.49,-197.89"/>
<polygon fill="black" stroke="black" points="1801.98,-194.707 1791.56,-192.775 1798.5,-200.781 1801.98,-194.707"/>
</g>
<!-- lpair_histo -->
<g id="node27" class="node"><title>lpair_histo</title>
<path fill="none" stroke="black" d="M1379,-269C1379,-269 1202,-269 1202,-269 1196,-269 1190,-263 1190,-257 1190,-257 1190,-245 1190,-245 1190,-239 1196,-233 1202,-233 1202,-233 1379,-233 1379,-233 1385,-233 1391,-239 1391,-245 1391,-245 1391,-257 1391,-257 1391,-263 1385,-269 1379,-269"/>
<text text-anchor="middle" x="1290.5" y="-247.3" font-family="Times,serif" font-size="14.00">{Per&#45;language pair histogram(s)}</text>
</g>
<!-- qcintegrator -->
<g id="node43" class="node"><title>qcintegrator</title>
<polygon fill="none" stroke="black" points="239,-123 106,-123 106,-87 239,-87 239,-123"/>
<text text-anchor="middle" x="172.5" y="-101.3" font-family="Times,serif" font-size="14.00">crawler_qcintegrator</text>
</g>
<!-- fulls_sampled_annotated&#45;&gt;qcintegrator -->
<g id="edge38" class="edge"><title>fulls_sampled_annotated&#45;&gt;qcintegrator</title>
<path fill="none" stroke="black" d="M85.0255,-686.743C85.618,-665.767 86.5,-629.29 86.5,-598 86.5,-598 86.5,-598 86.5,-177 86.5,-155.786 102.254,-139.725 120.277,-128.292"/>
<polygon fill="black" stroke="black" points="122.381,-131.117 129.248,-123.049 118.848,-125.073 122.381,-131.117"/>
</g>
<!-- fulls_enriched -->
<g id="node29" class="node"><title>fulls_enriched</title>
<path fill="none" stroke="black" d="M378.5,-36C378.5,-36 114.5,-36 114.5,-36 108.5,-36 102.5,-30 102.5,-24 102.5,-24 102.5,-12 102.5,-12 102.5,-6 108.5,-0 114.5,-0 114.5,-0 378.5,-0 378.5,-0 384.5,-0 390.5,-6 390.5,-12 390.5,-12 390.5,-24 390.5,-24 390.5,-30 384.5,-36 378.5,-36"/>
<text text-anchor="middle" x="246.5" y="-14.3" font-family="Times,serif" font-size="14.00">{Full reports enriched with manual annotations}</text>
</g>
<!-- tmxbuilder -->
<g id="node44" class="node"><title>tmxbuilder</title>
<polygon fill="none" stroke="black" points="383.5,-123 257.5,-123 257.5,-87 383.5,-87 383.5,-123"/>
<text text-anchor="middle" x="320.5" y="-101.3" font-family="Times,serif" font-size="14.00">crawler_tmxbuilder</text>
</g>
<!-- fulls_enriched&#45;&gt;tmxbuilder -->
<g id="edge41" class="edge"><title>fulls_enriched&#45;&gt;tmxbuilder</title>
<path fill="none" stroke="black" d="M261.453,-36.1754C272.18,-48.4969 286.798,-65.2886 298.806,-79.0811"/>
<polygon fill="black" stroke="black" points="296.319,-81.5549 305.525,-86.799 301.599,-76.9585 296.319,-81.5549"/>
</g>
<!-- psi_info&#45;&gt;qcintegrator -->
<g id="edge39" class="edge"><title>psi_info&#45;&gt;qcintegrator</title>
<path fill="none" stroke="black" d="M189.08,-578.683C185.851,-560.805 181.5,-532.066 181.5,-507 181.5,-507 181.5,-507 181.5,-177 181.5,-162.392 179.602,-146.226 177.549,-133.015"/>
<polygon fill="black" stroke="black" points="180.999,-132.428 175.903,-123.139 174.095,-133.579 180.999,-132.428"/>
</g>
<!-- launcher&#45;&gt;tmxs -->
<g id="edge3" class="edge"><title>launcher&#45;&gt;tmxs</title>
<path fill="none" stroke="black" d="M609.189,-848.148C617.526,-848.148 625.863,-848.148 634.199,-848.148"/>
<polygon fill="black" stroke="black" points="634.368,-851.648 644.368,-848.148 634.368,-844.648 634.368,-851.648"/>
</g>
<!-- backuper&#45;&gt;zips -->
<g id="edge5" class="edge"><title>backuper&#45;&gt;zips</title>
<path fill="none" stroke="black" d="M881.156,-848.148C889.722,-848.148 898.287,-848.148 906.853,-848.148"/>
<polygon fill="black" stroke="black" points="906.908,-851.648 916.908,-848.148 906.908,-844.648 906.908,-851.648"/>
</g>
<!-- metacleaner&#45;&gt;tmxs_dedup -->
<g id="edge11" class="edge"><title>metacleaner&#45;&gt;tmxs_dedup</title>
<path fill="none" stroke="black" d="M751.872,-777.039C811.392,-796.721 915.28,-822.88 1002.5,-802.5 1020.09,-798.39 1038.2,-790.225 1053.39,-782.069"/>
<polygon fill="black" stroke="black" points="1055.4,-784.953 1062.43,-777.027 1051.99,-778.838 1055.4,-784.953"/>
</g>
<!-- reporter&#45;&gt;syntheses -->
<g id="edge15" class="edge"><title>reporter&#45;&gt;syntheses</title>
<path fill="none" stroke="black" d="M1006.58,-641.099C1124.56,-622.036 1401.69,-577.256 1534.29,-555.829"/>
<polygon fill="black" stroke="black" points="1535.05,-559.253 1544.36,-554.203 1533.93,-552.343 1535.05,-559.253"/>
</g>
<!-- reporter&#45;&gt;fulls -->
<g id="edge16" class="edge"><title>reporter&#45;&gt;fulls</title>
<path fill="none" stroke="black" d="M974.957,-632.969C999.396,-615.226 1037.86,-587.299 1065.17,-567.471"/>
<polygon fill="black" stroke="black" points="1067.58,-570.048 1073.62,-561.341 1063.47,-564.384 1067.58,-570.048"/>
</g>
<!-- reporter&#45;&gt;uniqurls -->
<g id="edge17" class="edge"><title>reporter&#45;&gt;uniqurls</title>
<path fill="none" stroke="black" d="M949.572,-632.969C947.694,-616.378 944.807,-590.883 942.605,-571.431"/>
<polygon fill="black" stroke="black" points="946.066,-570.883 941.463,-561.341 939.11,-571.671 946.066,-570.883"/>
</g>
<!-- aggregator&#45;&gt;site_aggregs -->
<g id="edge20" class="edge"><title>aggregator&#45;&gt;site_aggregs</title>
<path fill="none" stroke="black" d="M1512.01,-451.994C1538.84,-441.968 1572.97,-429.213 1601.33,-418.617"/>
<polygon fill="black" stroke="black" points="1602.56,-421.893 1610.7,-415.114 1600.11,-415.335 1602.56,-421.893"/>
</g>
<!-- aggregator&#45;&gt;lpair_aggregs -->
<g id="edge21" class="edge"><title>aggregator&#45;&gt;lpair_aggregs</title>
<path fill="none" stroke="black" d="M1466.5,-451.813C1466.5,-443.789 1466.5,-434.047 1466.5,-425.069"/>
<polygon fill="black" stroke="black" points="1470,-425.029 1466.5,-415.029 1463,-425.029 1470,-425.029"/>
</g>
<!-- aggregator&#45;&gt;lpair_confmat -->
<g id="edge22" class="edge"><title>aggregator&#45;&gt;lpair_confmat</title>
<path fill="none" stroke="black" d="M1411.65,-451.994C1378.89,-441.838 1337.1,-428.879 1302.66,-418.204"/>
<polygon fill="black" stroke="black" points="1303.29,-414.732 1292.7,-415.114 1301.21,-421.418 1303.29,-414.732"/>
</g>
<!-- filter&#45;&gt;syntheses_filtered -->
<g id="edge45" class="edge"><title>filter&#45;&gt;syntheses_filtered</title>
<path fill="none" stroke="black" d="M1839.95,-452.174C1867.71,-442.116 1903.2,-429.262 1932.63,-418.6"/>
<polygon fill="black" stroke="black" points="1934.15,-421.771 1942.36,-415.075 1931.77,-415.19 1934.15,-421.771"/>
</g>
<!-- filter&#45;&gt;fulls_filtered -->
<g id="edge46" class="edge"><title>filter&#45;&gt;fulls_filtered</title>
<path fill="none" stroke="black" d="M1799.07,-451.813C1801.7,-443.702 1804.89,-433.836 1807.83,-424.777"/>
<polygon fill="black" stroke="black" points="1811.23,-425.621 1810.98,-415.029 1804.57,-423.463 1811.23,-425.621"/>
</g>
<!-- pprinter&#45;&gt;fulls_pp -->
<g id="edge50" class="edge"><title>pprinter&#45;&gt;fulls_pp</title>
<path fill="none" stroke="black" d="M830.392,-461.073C762.582,-451.217 643.666,-433.604 532.269,-415.273"/>
<polygon fill="black" stroke="black" points="532.642,-411.788 522.205,-413.612 531.502,-418.694 532.642,-411.788"/>
</g>
<!-- pprinter&#45;&gt;lpair_confmat_pp -->
<g id="edge51" class="edge"><title>pprinter&#45;&gt;lpair_confmat_pp</title>
<path fill="none" stroke="black" d="M885.5,-451.813C885.5,-443.789 885.5,-434.047 885.5,-425.069"/>
<polygon fill="black" stroke="black" points="889,-425.029 885.5,-415.029 882,-425.029 889,-425.029"/>
</g>
<!-- dbdumper&#45;&gt;syntheses_db -->
<g id="edge27" class="edge"><title>dbdumper&#45;&gt;syntheses_db</title>
<path fill="none" stroke="black" d="M1613.39,-305.994C1588.19,-296.055 1556.19,-283.434 1529.47,-272.894"/>
<polygon fill="black" stroke="black" points="1530.47,-269.527 1519.89,-269.114 1527.9,-276.039 1530.47,-269.527"/>
</g>
<!-- dbdumper&#45;&gt;fulls_db -->
<g id="edge28" class="edge"><title>dbdumper&#45;&gt;fulls_db</title>
<path fill="none" stroke="black" d="M1717.16,-316.491C1788.05,-308.34 1908.96,-292.747 2021.11,-269.163"/>
<polygon fill="black" stroke="black" points="2021.84,-272.586 2030.9,-267.08 2020.39,-265.739 2021.84,-272.586"/>
</g>
<!-- dbdumper&#45;&gt;site_db -->
<g id="edge29" class="edge"><title>dbdumper&#45;&gt;site_db</title>
<path fill="none" stroke="black" d="M1656.5,-305.813C1656.5,-297.789 1656.5,-288.047 1656.5,-279.069"/>
<polygon fill="black" stroke="black" points="1660,-279.029 1656.5,-269.029 1653,-279.029 1660,-279.029"/>
</g>
<!-- dbdumper&#45;&gt;lpair_db -->
<g id="edge30" class="edge"><title>dbdumper&#45;&gt;lpair_db</title>
<path fill="none" stroke="black" d="M1712.79,-305.994C1746.55,-295.794 1789.66,-282.768 1825.08,-272.066"/>
<polygon fill="black" stroke="black" points="1826.3,-275.356 1834.86,-269.114 1824.27,-268.655 1826.3,-275.356"/>
</g>
<!-- dbretriever&#45;&gt;syntheses_q -->
<g id="edge55" class="edge"><title>dbretriever&#45;&gt;syntheses_q</title>
<path fill="none" stroke="black" d="M1749.89,-86.799C1737.16,-74.3561 1719.77,-57.3644 1705.58,-43.5044"/>
<polygon fill="black" stroke="black" points="1707.68,-40.6603 1698.08,-36.1754 1702.79,-45.6673 1707.68,-40.6603"/>
<text text-anchor="middle" x="1777" y="-57.8" font-family="Times,serif" font-size="14.00">웃 (query, dump)</text>
</g>
<!-- dbretriever&#45;&gt;fulls_q -->
<g id="edge56" class="edge"><title>dbretriever&#45;&gt;fulls_q</title>
<path fill="none" stroke="black" d="M1806.1,-86.9008C1814.51,-81.9649 1822.86,-75.9866 1829.5,-69 1835.85,-62.3275 1840.92,-53.7334 1844.8,-45.5583"/>
<polygon fill="black" stroke="black" points="1848.05,-46.8623 1848.8,-36.2943 1841.62,-44.0858 1848.05,-46.8623"/>
<text text-anchor="middle" x="1888" y="-57.8" font-family="Times,serif" font-size="14.00">웃 (query, dump)</text>
</g>
<!-- dbretriever&#45;&gt;site_q -->
<g id="edge60" class="edge"><title>dbretriever&#45;&gt;site_q</title>
<path fill="none" stroke="black" d="M1703.9,-91.013C1677.04,-85.05 1645.54,-77.4284 1617.5,-69 1589.5,-60.5849 1558.9,-49.421 1533.93,-39.7771"/>
<polygon fill="black" stroke="black" points="1534.89,-36.3945 1524.3,-36.0269 1532.35,-42.9173 1534.89,-36.3945"/>
<text text-anchor="middle" x="1666" y="-57.8" font-family="Times,serif" font-size="14.00">웃 (query, dump)</text>
</g>
<!-- dbretriever&#45;&gt;lpair_q -->
<g id="edge61" class="edge"><title>dbretriever&#45;&gt;lpair_q</title>
<path fill="none" stroke="black" d="M1831.04,-93.9863C1864.04,-88.0733 1904.82,-79.6486 1940.5,-69 1966.98,-61.0975 1995.65,-49.8317 2018.86,-39.9938"/>
<polygon fill="black" stroke="black" points="2020.3,-43.1811 2028.11,-36.0214 2017.54,-36.7483 2020.3,-43.1811"/>
<text text-anchor="middle" x="2030" y="-57.8" font-family="Times,serif" font-size="14.00">웃 (query, dump)</text>
</g>
<!-- sampler&#45;&gt;fulls_sampled -->
<g id="edge34" class="edge"><title>sampler&#45;&gt;fulls_sampled</title>
<path fill="none" stroke="black" d="M959.988,-454.266C956.449,-453.457 952.93,-452.693 949.5,-452 839.48,-429.767 807.855,-434.781 692.902,-414.995"/>
<polygon fill="black" stroke="black" points="693.459,-411.539 683.006,-413.266 692.254,-418.435 693.459,-411.539"/>
</g>
<!-- plotter&#45;&gt;lpair_histo -->
<g id="edge32" class="edge"><title>plotter&#45;&gt;lpair_histo</title>
<path fill="none" stroke="black" d="M1323.85,-305.813C1318.61,-297.353 1312.18,-286.984 1306.37,-277.612"/>
<polygon fill="black" stroke="black" points="1309.3,-275.685 1301.05,-269.029 1303.35,-279.373 1309.3,-275.685"/>
</g>
<!-- pgloader&#45;&gt;dbretriever -->
<g id="edge59" class="edge"><title>pgloader&#45;&gt;dbretriever</title>
<path fill="none" stroke="black" d="M1767.5,-159.813C1767.5,-151.789 1767.5,-142.047 1767.5,-133.069"/>
<polygon fill="black" stroke="black" points="1771,-133.029 1767.5,-123.029 1764,-133.029 1771,-133.029"/>
</g>
<!-- qcintegrator&#45;&gt;fulls_enriched -->
<g id="edge40" class="edge"><title>qcintegrator&#45;&gt;fulls_enriched</title>
<path fill="none" stroke="black" d="M187.475,-86.799C198.207,-74.4713 212.827,-57.6787 224.831,-43.8902"/>
<polygon fill="black" stroke="black" points="227.621,-46.0159 231.547,-36.1754 222.341,-41.4195 227.621,-46.0159"/>
</g>
<!-- tmxbuilder&#45;&gt;tmxs -->
<g id="edge42" class="edge"><title>tmxbuilder&#45;&gt;tmxs</title>
<path fill="none" stroke="black" d="M320.5,-123.216C320.5,-137.595 320.5,-158.634 320.5,-177 320.5,-398 320.5,-398 320.5,-398 320.5,-551.506 603.5,-442.494 603.5,-596 603.5,-760 603.5,-760 603.5,-760 603.5,-787.271 625.086,-809.288 646.373,-824.37"/>
<polygon fill="black" stroke="black" points="644.527,-827.346 654.783,-830.005 648.424,-821.531 644.527,-827.346"/>
</g>
<!-- localserver&#45;&gt;launcher -->
<g id="edge8" class="edge"><title>localserver&#45;&gt;launcher</title>
<path fill="none" stroke="black" d="M473.915,-669.3C482.546,-687.165 496.26,-715.894 507.5,-741 519.574,-767.969 532.687,-799.131 541.625,-820.683"/>
<polygon fill="black" stroke="black" points="538.482,-822.24 545.537,-830.144 544.951,-819.566 538.482,-822.24"/>
</g>
</g>
</svg>
